<svg width="21" height="21" viewBox="0 0 21 21" fill="none" xmlns="http://www.w3.org/2000/svg">
<rect width="20.4085" height="20.4085" rx="7" fill="white"/>
<path d="M15.2609 9.91001C15.2618 9.91001 15.2625 9.91001 15.2634 9.91001C15.3271 9.91001 15.3877 9.88332 15.4308 9.83656C15.4746 9.78911 15.4963 9.72547 15.4906 9.66115C15.2616 7.1422 13.2674 5.1472 10.7484 4.91773C10.6845 4.91271 10.6202 4.93347 10.5727 4.97749C10.5253 5.02129 10.4988 5.0831 10.4995 5.14766C10.5392 8.49531 10.9808 9.86325 15.2609 9.91001ZM15.2609 10.3726C10.9808 10.4194 10.5394 11.7873 10.4997 15.135C10.4991 15.1995 10.5255 15.2613 10.573 15.3051C10.6154 15.3441 10.6708 15.3658 10.7278 15.3658C10.7347 15.3658 10.7417 15.3656 10.7486 15.3649C13.2676 15.1354 15.2618 13.1406 15.4906 10.6215C15.4963 10.5571 15.4749 10.4935 15.4308 10.4461C15.3868 10.3986 15.3255 10.3751 15.2609 10.3726ZM9.77054 4.91887C7.25949 5.15496 5.27168 7.14949 5.04382 9.6616C5.03812 9.72593 5.05956 9.78957 5.10358 9.83701C5.14669 9.88378 5.20759 9.91024 5.271 9.91024C5.27191 9.91024 5.27282 9.91024 5.27373 9.91024C9.53971 9.86119 9.98015 8.49394 10.0203 5.14857C10.021 5.08401 9.9943 5.02197 9.94685 4.97817C9.89895 4.93438 9.83486 4.91294 9.77054 4.91887ZM5.27351 10.3724C5.20257 10.3644 5.14692 10.3981 5.10335 10.4456C5.05956 10.493 5.03789 10.5567 5.04359 10.621C5.27145 13.1331 7.25949 15.1277 9.77054 15.3637C9.77761 15.3644 9.78491 15.3647 9.79198 15.3647C9.849 15.3647 9.9042 15.3432 9.94662 15.3042C9.99407 15.2604 10.0208 15.1984 10.0201 15.1338C9.97993 11.7887 9.53971 10.4214 5.27351 10.3724Z" fill="#004E16"/>
</svg>
