<svg width="78" height="79" viewBox="0 0 78 79" fill="none" xmlns="http://www.w3.org/2000/svg">
<rect x="0.306183" y="0.357422" width="77.6936" height="77.6936" rx="20" fill="#008425"/>
<path d="M58.4032 38.0844C58.4067 38.0844 58.4093 38.0844 58.4128 38.0844C58.655 38.0844 58.886 37.9828 59.0501 37.8048C59.2168 37.6242 59.2993 37.3819 59.2776 37.137C58.4058 27.5476 50.8141 19.9528 41.2243 19.0792C40.9812 19.0601 40.7363 19.1391 40.5557 19.3067C40.3751 19.4735 40.2744 19.7088 40.277 19.9545C40.4281 32.6988 42.1091 37.9064 58.4032 38.0844ZM58.4032 39.8455C42.1091 40.0235 40.4289 45.2311 40.2778 57.9754C40.2752 58.2211 40.376 58.4565 40.5566 58.6232C40.7181 58.7717 40.9291 58.8542 41.1462 58.8542C41.1722 58.8542 41.1991 58.8533 41.2252 58.8507C50.8149 57.9771 58.4067 50.3832 59.2776 40.7929C59.2993 40.548 59.2177 40.3057 59.0501 40.1251C58.8825 39.9445 58.649 39.8551 58.4032 39.8455ZM37.5018 19.0836C27.9424 19.9823 20.375 27.5754 19.5076 37.1388C19.4859 37.3837 19.5675 37.6259 19.7351 37.8066C19.8992 37.9846 20.131 38.0853 20.3724 38.0853C20.3759 38.0853 20.3794 38.0853 20.3828 38.0853C36.6231 37.8986 38.2998 32.6936 38.4526 19.958C38.4552 19.7123 38.3536 19.4761 38.173 19.3093C37.9907 19.1426 37.7467 19.061 37.5018 19.0836ZM20.382 39.8446C20.1119 39.8142 19.9 39.9428 19.7342 40.1234C19.5675 40.304 19.485 40.5463 19.5067 40.7912C20.3741 50.3546 27.9424 57.9476 37.5018 58.8464C37.5287 58.849 37.5565 58.8499 37.5834 58.8499C37.8005 58.8499 38.0107 58.7682 38.1722 58.6197C38.3528 58.453 38.4544 58.2168 38.4518 57.9711C38.2989 45.2364 36.6231 40.0313 20.382 39.8446Z" fill="#F4F1EB"/>
</svg>
