<svg width="303" height="99" viewBox="0 0 303 99" fill="none" xmlns="http://www.w3.org/2000/svg">
<g clip-path="url(#clip0_69_527)">
<path d="M77.0878 57.4675C77.8108 57.4675 78.0518 57.7888 77.6501 58.5119C77.4894 58.8332 77.3288 59.0743 77.2484 59.3956C77.1681 59.717 77.0877 59.958 76.9271 60.2793C76.7664 60.6007 76.686 60.8417 76.6057 61.0024C76.5254 61.1631 76.3647 61.4041 76.2844 61.6451C76.1237 61.8861 76.0433 62.0468 75.8827 62.2075C75.722 62.3682 75.6416 62.5289 75.481 62.6895C75.3203 62.9306 75.2399 63.0912 75.0793 63.3323C74.9186 63.4929 74.8382 63.734 74.6776 64.0553C74.5169 64.3767 74.2759 64.698 74.1152 65.0194C73.9545 65.4211 73.7135 65.7425 73.6331 65.9835C73.5528 66.0638 73.4725 66.2245 73.4725 66.3048C73.3921 66.3852 73.3118 66.4655 73.3118 66.6262C72.7494 67.2689 72.2674 67.8313 71.7853 68.474C71.3033 69.0364 70.7409 69.6791 70.2589 70.3218C70.0179 70.6432 69.7768 70.8842 69.6161 71.2056C69.4555 71.5269 69.2144 71.8483 68.9734 72.1696C68.4111 72.973 67.8487 73.6961 67.206 74.3388C66.5632 74.9815 65.9205 75.7046 65.1975 76.4276C64.8761 76.8293 64.4744 77.1507 63.9924 77.4721C63.5103 77.7934 63.0283 78.0344 62.3856 78.1148C62.1446 78.1951 61.9035 78.2755 61.7428 78.4361C61.5822 78.5968 61.4215 78.6772 61.1805 78.8378C60.6181 79.2395 59.9754 79.4002 59.413 79.4002C59.2523 79.3199 59.0113 79.3199 58.8506 79.3199C58.6899 79.3199 58.4489 79.3199 58.2882 79.2395C58.0472 79.1592 57.8062 79.1592 57.5652 79.0789C57.3242 78.9985 57.0831 78.9985 56.6814 79.0789C56.1191 79.1592 55.5567 79.0789 54.9943 78.8378C54.4319 78.5968 53.7892 78.2755 53.2268 77.9541C52.6645 77.5524 52.1021 77.1507 51.62 76.749C51.138 76.3473 50.656 75.9456 50.2543 75.7046C49.4509 75.0619 48.8885 74.3388 48.4868 73.5354C48.0851 72.732 47.8441 71.8483 47.7637 70.9645C47.6031 69.7594 47.5227 68.474 47.6031 67.3493C47.6834 66.1442 47.8441 64.9391 48.1654 63.8143C48.7278 61.8058 49.3705 59.7973 50.1739 57.8692C50.9773 55.941 51.9414 54.0128 52.9055 52.165C53.6285 50.7189 54.4319 49.4335 55.3157 48.148C56.1994 46.8626 57.1635 45.5772 58.1276 44.2917C59.4933 42.6046 60.9395 41.1585 62.6266 40.0337C62.8676 39.873 63.1086 39.7124 63.3496 39.4713C63.5103 39.3107 63.7513 39.0696 64.0727 38.909C65.2778 38.0252 66.5632 37.3022 67.8487 36.8201C68.3307 36.6594 68.6521 36.5791 68.9734 36.6594C69.5358 36.7398 70.1785 36.8201 70.8212 36.8201C71.464 36.8201 72.0263 36.9005 72.5887 37.2218C72.9101 37.3825 73.2314 37.5432 73.6331 37.7039C74.0348 37.8645 74.2759 38.1056 74.5972 38.5073C74.7579 38.8286 74.9186 39.0696 75.1596 39.3107C75.4006 39.5517 75.6416 39.7927 75.8023 40.1141C75.963 40.4354 76.1237 40.6764 76.204 40.9978C76.2843 41.3192 76.3647 41.5602 76.3647 41.8815C76.445 42.2029 76.445 42.5243 76.445 42.926C76.445 43.2473 76.445 43.5687 76.6057 43.9704C76.686 44.2917 76.6057 44.6131 76.445 45.0148C76.2844 45.3361 76.204 45.5772 76.204 45.8182C76.204 46.0592 76.1237 46.3002 75.963 46.6216C75.963 46.7019 75.8826 46.8626 75.8023 46.9429C75.2399 47.5857 74.8382 48.3087 74.4365 48.9514C74.0348 49.5942 73.6331 50.3172 73.1511 51.0403L72.5084 50.9599C72.2674 51.2813 71.946 51.5223 71.705 51.8437C71.464 52.165 71.2229 52.4864 71.1426 52.8881C71.0623 53.1291 70.9819 53.2898 70.7409 53.4505C70.5802 53.6111 70.3392 53.7718 70.2589 53.9325C69.6965 54.4949 69.2145 55.0573 68.7324 55.6196C68.2504 56.182 67.688 56.7444 67.206 57.3068C66.5632 57.9495 65.9205 58.5119 65.2778 59.1546C64.7154 59.717 63.9924 60.3597 63.2693 60.9221C62.9479 61.2434 62.5462 61.4844 62.1445 61.6451C61.7428 61.8058 61.3412 62.0468 60.9395 62.2878C60.3771 62.6092 59.8147 62.9306 59.2523 63.2519C58.6899 63.6536 58.2079 63.975 57.6455 64.3767C57.4848 64.457 57.4848 64.457 57.4848 64.5374C57.4848 64.5374 57.4045 64.6177 57.3242 64.6177C56.2797 64.698 55.7174 65.0997 55.637 65.9835C55.5567 66.6262 55.4764 67.1886 55.3157 67.8313C55.155 68.3937 55.155 69.0364 55.3157 69.6791C55.396 70.0005 55.396 70.3218 55.396 70.7235C55.396 71.0449 55.396 71.3662 55.396 71.7679C55.396 72.25 55.4764 72.6517 55.7174 73.0534V73.1337C55.878 73.2141 56.0387 73.4551 56.2797 73.7764C56.4404 73.8568 56.4404 73.9371 56.4404 74.0175C56.5208 74.0175 56.6011 74.0175 56.6011 74.0978V74.1781C57.0831 74.5798 57.5652 74.5798 58.1276 74.2585C59.0916 73.7764 60.1361 73.2141 61.1001 72.6517C62.0642 72.0893 63.0283 71.4466 63.8317 70.6432C64.153 70.3218 64.4744 70.0808 64.7958 69.7594C65.1171 69.4381 65.4385 69.1167 65.7598 68.8757C66.2419 68.3937 66.6436 67.992 67.1256 67.5903C67.5273 67.1886 68.0094 66.7065 68.4914 66.3048C68.9734 65.9031 69.3751 65.5014 69.8572 65.0997C70.2589 64.698 70.7409 64.2963 71.1426 63.8143C71.705 63.1716 72.3477 62.5289 72.9101 61.8861C73.4725 61.2434 74.1152 60.6007 74.6776 59.8776C74.9186 59.5563 75.1596 59.3153 75.4006 58.9939C75.6416 58.6726 75.8827 58.3512 76.0433 58.1102C76.204 57.6281 76.6057 57.4675 77.0878 57.4675ZM60.6984 52.7274C60.5378 53.1291 60.3771 53.5308 60.2164 53.9325C60.0557 54.3342 59.8147 54.7359 59.5737 55.1376C60.1361 54.6556 60.6181 54.2539 61.1001 53.8522C61.5822 53.4505 62.0642 53.0488 62.5462 52.5667C63.5103 51.6026 64.3941 50.6386 65.2778 49.5942C66.1615 48.5497 66.8043 47.5053 67.3666 46.3806C67.6077 45.8985 67.929 45.4165 68.17 44.9344C68.4111 44.4524 68.6521 43.9704 68.8931 43.4883C69.0538 43.167 69.1341 42.8456 69.2948 42.4439C69.4555 42.1226 69.4555 41.8012 69.4555 41.3995H69.1341C68.8128 41.6405 68.4914 41.8012 68.17 42.0422C67.8487 42.2029 67.6077 42.4439 67.2863 42.7653C66.8846 43.167 66.5632 43.5687 66.2419 43.9704C65.9205 44.3721 65.5992 44.7738 65.2778 45.1755C64.9564 45.6575 64.6351 46.0592 64.3137 46.4609C63.9924 46.8626 63.5907 47.2643 63.189 47.7463C62.6266 48.2284 62.3052 48.8711 62.0642 49.5942C61.9839 49.9155 61.9035 50.1565 61.9035 50.3172C61.8232 50.4779 61.7429 50.7189 61.5822 50.9599C61.4215 51.2813 61.2608 51.5223 61.1001 51.8437C61.0198 52.165 60.8591 52.406 60.6984 52.7274Z" fill="#008425"/>
<path d="M82.6311 75.7852C82.3097 75.7049 81.9884 75.6245 81.667 75.4639C81.3457 75.3032 81.1047 75.1425 80.7833 74.9818C80.3816 74.6605 80.0602 74.4998 79.8192 74.4998C79.6585 74.4195 79.4175 74.2588 79.2568 74.1784C79.0962 74.0981 78.9355 73.9374 78.7748 73.7767C78.4534 73.4554 78.2124 73.134 78.0517 72.9733C77.8911 72.8127 77.7304 72.5716 77.5697 72.3306C77.409 72.0896 77.3287 71.8486 77.168 71.5272C77.0073 71.2059 76.8466 70.8042 76.686 70.2418C76.3646 69.4384 76.0432 68.635 75.8022 67.7513C75.5612 66.8675 75.4005 65.9838 75.4005 65.0197C75.4809 64.4573 75.4809 63.8949 75.4809 63.3326C75.4809 62.7702 75.4005 62.2078 75.3202 61.6454C75.3202 61.0027 75.3202 60.4403 75.4005 59.7976C75.4005 59.1549 75.4809 58.5925 75.5612 57.9498C75.7219 57.0661 75.8022 56.1823 75.9629 55.2986C76.1236 54.4148 76.2843 53.5311 76.4449 52.6474C76.6056 51.7636 76.8466 50.9602 77.0073 50.1568C77.168 49.3534 77.409 48.4697 77.7304 47.6663C77.8911 47.3449 77.9714 47.0236 78.1321 46.6219C78.2928 46.3005 78.3731 45.8988 78.5338 45.4971C78.6945 45.0151 78.8551 44.6134 79.0158 44.2117C79.1765 43.81 79.4175 43.4083 79.4979 42.9262C80.2209 40.9178 81.0243 38.9896 81.9081 37.1418C82.4704 36.0974 82.9525 34.9726 83.5149 33.9282C84.0772 32.8838 84.7199 31.8394 85.3627 30.7949C85.925 29.9112 86.4874 29.1078 87.0498 28.2241C87.6122 27.3403 88.2549 26.5369 88.978 25.7335C89.8617 24.6891 90.6651 23.725 91.3881 22.6806C91.7095 22.1986 92.1112 21.7969 92.5129 21.4755C92.9146 21.0738 93.3163 20.7525 93.6377 20.3508C93.959 19.9491 94.2804 19.5474 94.6821 19.226C95.0838 18.9046 95.4051 18.5833 95.7265 18.1816C96.0479 17.5389 96.5299 17.2175 97.0119 17.2175C97.1726 17.2175 97.2529 17.2175 97.3333 17.1372C97.4136 17.0568 97.494 17.0568 97.6546 16.9765C98.5384 16.4945 99.4221 16.1731 100.386 16.1731C101.431 16.1731 102.234 16.4945 102.796 17.0568C102.957 17.2175 103.037 17.3782 103.198 17.4585C103.359 17.5389 103.439 17.6996 103.6 17.8602C104.001 18.5029 104.323 19.1457 104.484 19.7884C104.644 20.4311 104.644 21.1542 104.403 21.9576C104.243 22.6003 104.001 23.3233 103.841 24.0464C103.68 24.7695 103.439 25.4122 103.198 26.0549C102.957 26.6976 102.716 27.26 102.475 27.742C102.234 28.2241 101.993 28.7864 101.752 29.3488C101.591 29.6702 101.511 29.9112 101.35 30.1522C101.19 30.3932 101.109 30.7146 100.949 30.9556C100.708 31.5983 100.386 32.3214 99.9845 32.8838C99.5828 33.5265 99.1811 34.1692 98.6991 34.7316C98.5384 34.9726 98.458 35.1333 98.2974 35.3743C98.1367 35.535 98.0563 35.776 97.8957 36.0974C97.735 36.4187 97.5743 36.5794 97.3333 36.5794C97.0923 36.5794 96.8513 36.7401 96.7709 37.0614C96.6906 37.5435 96.5299 37.9452 96.2889 38.2665C96.0478 38.6682 95.7265 38.9896 95.4855 39.3913C94.9231 40.275 94.5214 41.1588 94.1197 42.0425C93.8787 42.6049 93.6377 43.1673 93.3966 43.6493C93.1556 44.1313 92.9146 44.6134 92.5129 45.0954C92.1915 45.5775 91.8702 45.9792 91.6292 46.4612C91.3881 46.9432 91.0668 47.3449 90.8258 47.827C90.4241 48.4697 90.0224 49.1124 89.6207 49.7551C89.219 50.3979 88.8173 51.1209 88.3352 51.7636C88.1746 52.0046 88.0942 52.2457 87.9335 52.4063C87.7729 52.6474 87.6925 52.808 87.5318 52.9687C86.9695 53.7721 86.4874 54.5755 86.0054 55.2986C85.5233 56.0216 84.961 56.7447 84.2379 57.4678C84.1576 57.5481 84.0772 57.7088 83.8362 57.8694C83.4345 58.1908 83.1131 58.4318 82.8721 58.8335C82.6311 59.1549 82.4704 59.5566 82.3098 60.0386C82.1491 60.6813 81.9884 61.4044 81.9884 62.0471C81.9884 62.6898 81.9081 63.4129 81.8277 64.0556C81.8277 64.377 81.8277 64.618 81.7474 64.859C81.7474 65.1 81.7474 65.3411 81.8277 65.6624C82.1491 67.5102 82.7918 69.1974 83.7559 70.5631C83.9969 71.0452 84.4789 71.3665 85.1216 71.5272H85.443C86.0054 71.7682 86.4071 71.8486 86.8088 71.6879C87.2105 71.6076 87.6122 71.3665 88.0139 71.1255C88.4959 70.9648 88.978 70.7238 89.5403 70.3221C90.1027 69.8401 90.6651 69.358 91.2275 68.7957C91.7898 68.3136 92.1915 67.7512 92.5932 67.1889C92.9949 66.6265 93.3966 66.0641 93.8787 65.5017C94.2 65.1 94.5214 64.6983 94.7624 64.2163C95.0034 63.7343 95.3248 63.3326 95.5658 62.8505C95.7265 62.6095 95.8068 62.4488 95.9675 62.2078C96.1282 62.0471 96.2889 61.8864 96.4496 61.7258C96.8513 61.2437 97.1726 60.6813 97.3333 60.1993C97.494 59.7976 97.735 59.3959 97.8957 59.0745C98.0563 58.6728 98.3777 58.3515 98.6991 58.1105L98.8597 57.7891C99.1008 57.3071 99.4221 56.9054 99.8238 56.5037C100.226 56.102 100.547 55.7003 100.868 55.2182C101.752 54.3345 102.636 53.6114 103.6 53.0491C104.001 52.7277 104.243 52.6474 104.403 52.808C104.564 52.8884 104.564 53.2097 104.564 53.7721C104.403 54.2542 104.162 54.6559 103.921 54.9772C103.68 55.3789 103.439 55.7806 103.198 56.1823C102.796 56.9857 102.395 57.7891 101.913 58.5122C101.431 59.3156 101.029 60.0386 100.708 60.842C100.467 61.4847 100.145 62.1275 99.9042 62.7702C99.6631 63.3326 99.3418 63.9753 98.9401 64.618V64.6983C98.7794 65.3411 98.5384 65.9034 98.217 66.4658C97.8957 67.0282 97.494 67.5102 97.0923 68.0726C96.8512 68.394 96.6102 68.635 96.3692 68.9563C96.1282 69.2777 95.8872 69.5991 95.6462 69.8401C95.4855 70.0008 95.4051 70.1614 95.2445 70.2418C95.0838 70.3221 95.0034 70.4828 94.8428 70.5631C94.6017 71.1255 94.2804 71.6076 93.8787 72.0093C93.477 72.411 92.9949 72.8127 92.5129 73.2144C92.1112 73.5357 91.7095 73.7767 91.3881 74.0178C90.9864 74.2588 90.5847 74.5801 90.1027 74.8212C88.8976 75.4639 87.6122 75.7852 86.3267 75.8656C85.7644 75.9459 85.2823 76.0262 84.7199 75.9459C83.8362 75.9459 83.2738 75.8656 82.6311 75.7852ZM97.735 24.2071C97.0119 25.1712 96.2889 26.1352 95.7265 27.019C95.0838 27.983 94.4411 28.8668 93.8787 29.8309C93.477 30.4736 93.0753 31.1163 92.7539 31.759C92.3522 32.4017 91.9505 33.0445 91.3881 33.6068C90.4241 34.6512 89.7813 35.776 89.3797 37.0614C89.219 37.6238 89.0583 38.1862 88.8976 38.6682C88.7369 39.1503 88.4156 39.7127 88.0139 40.1947C87.6925 40.5161 87.4515 40.7571 87.4515 40.9981C87.2908 41.3998 87.0498 41.8015 86.8891 42.1229C86.7284 42.4442 86.6481 42.8459 86.6481 43.3279C86.4874 43.8903 86.4071 44.3724 86.2464 44.8544C86.0857 45.1758 86.0054 45.4971 85.8447 45.8988C85.684 46.2202 85.6037 46.5415 85.443 46.9432C85.443 47.0236 85.443 47.1843 85.3627 47.2646C85.2823 47.3449 85.3627 47.5056 85.443 47.586C85.7644 47.4253 86.0054 47.1039 86.2464 46.5415C86.3267 46.4612 86.3267 46.3809 86.3267 46.3005C86.3267 46.2202 86.3267 46.2202 86.4071 46.1398C86.6481 45.9792 86.8891 45.7381 86.9695 45.5775C87.0498 45.3364 87.2105 45.0954 87.2908 44.7741C87.2908 44.533 87.4515 44.292 87.6925 43.8903C88.3352 43.0869 88.8976 42.2032 89.2993 41.0784L89.6207 40.5964C90.3437 39.552 90.9864 38.4272 91.6292 37.2221C92.1915 36.0974 92.8343 34.8923 93.5573 33.6872C93.8787 33.1248 94.2 32.5624 94.4411 32C94.6821 31.4377 95.0034 30.8753 95.3248 30.2326C95.4855 30.0719 95.5658 29.9112 95.6462 29.8309C95.7265 29.7505 95.8068 29.5898 95.8068 29.5095C95.9675 29.3488 96.0479 29.1881 96.1282 29.0275C96.2085 28.8668 96.2889 28.6258 96.3692 28.4651C96.4496 28.1437 96.5299 27.9027 96.6906 27.6617C96.8512 27.4207 96.9316 27.1796 97.0923 26.9386C97.2529 26.4566 97.494 25.9746 97.735 25.4925C97.976 25.0105 98.1367 24.5284 98.2974 24.0464C98.0563 23.9661 97.8957 24.0464 97.735 24.2071Z" fill="#008425"/>
<path d="M102.394 75.7852C102.073 75.7049 101.752 75.6245 101.43 75.4639C101.109 75.3032 100.868 75.1425 100.546 74.9818C100.145 74.6605 99.8234 74.4998 99.5823 74.4998C99.4217 74.4195 99.1806 74.2588 99.02 74.1784C98.8593 74.0981 98.6986 73.9374 98.5379 73.7767C98.2166 73.4554 97.9755 73.134 97.8149 72.9733C97.6542 72.8127 97.4935 72.5716 97.3328 72.3306C97.1721 72.0896 97.0918 71.8486 96.9311 71.5272C96.7705 71.2059 96.6098 70.8042 96.4491 70.2418C96.1277 69.4384 95.8064 68.635 95.5654 67.7513C95.3243 66.8675 95.1637 65.9838 95.1637 65.0197C95.244 64.4573 95.244 63.8949 95.244 63.3326C95.244 62.7702 95.1637 62.2078 95.0833 61.6454C95.0833 61.0027 95.0833 60.4403 95.1637 59.7976C95.1637 59.1549 95.244 58.5925 95.3243 57.9498C95.485 57.0661 95.5654 56.1823 95.726 55.2986C95.8867 54.4148 96.0474 53.5311 96.2081 52.6474C96.3688 51.7636 96.6098 50.9602 96.7705 50.1568C96.9311 49.3534 97.1721 48.4697 97.4935 47.6663C97.6542 47.3449 97.7345 47.0236 97.8952 46.6219C98.0559 46.3005 98.1362 45.8988 98.2969 45.4971C98.4576 45.0151 98.6183 44.6134 98.7789 44.2117C98.9396 43.81 99.1806 43.4083 99.261 42.9262C99.984 40.9178 100.787 38.9896 101.671 37.1418C102.234 36.0974 102.716 34.9726 103.278 33.9282C103.84 32.8838 104.483 31.8394 105.126 30.7949C105.688 29.9112 106.251 29.1078 106.813 28.2241C107.375 27.3403 108.018 26.5369 108.741 25.7335C109.625 24.6891 110.428 23.725 111.151 22.6806C111.473 22.1986 111.874 21.7969 112.276 21.4755C112.678 21.0738 113.079 20.7525 113.401 20.3508C113.722 19.9491 114.044 19.5474 114.445 19.226C114.847 18.9046 115.168 18.5833 115.49 18.1816C115.811 17.5389 116.293 17.2175 116.775 17.2175C116.936 17.2175 117.016 17.2175 117.096 17.1372C117.177 17.0568 117.257 17.0568 117.418 16.9765C118.302 16.4945 119.185 16.1731 120.149 16.1731C121.194 16.1731 121.997 16.4945 122.56 17.0568C122.72 17.2175 122.801 17.3782 122.961 17.4585C123.122 17.5389 123.202 17.6996 123.363 17.8602C123.765 18.5029 124.086 19.1457 124.247 19.7884C124.407 20.4311 124.407 21.1542 124.166 21.9576C124.006 22.6003 123.765 23.3233 123.604 24.0464C123.443 24.7695 123.202 25.4122 122.961 26.0549C122.72 26.6976 122.479 27.26 122.238 27.742C121.997 28.2241 121.756 28.7864 121.515 29.3488C121.354 29.6702 121.274 29.9112 121.113 30.1522C120.953 30.3932 120.872 30.7146 120.712 30.9556C120.471 31.5983 120.149 32.3214 119.748 32.8838C119.346 33.5265 118.944 34.1692 118.462 34.7316C118.302 34.9726 118.221 35.1333 118.06 35.3743C117.9 35.535 117.819 35.776 117.659 36.0974C117.498 36.4187 117.337 36.5794 117.096 36.5794C116.855 36.5794 116.614 36.7401 116.534 37.0614C116.454 37.5435 116.293 37.9452 116.052 38.2665C115.811 38.6682 115.49 38.9896 115.249 39.3913C114.686 40.275 114.285 41.1588 113.883 42.0425C113.642 42.6049 113.401 43.1673 113.16 43.6493C112.919 44.1313 112.678 44.6134 112.276 45.0954C111.955 45.5775 111.633 45.9792 111.392 46.4612C111.151 46.9432 110.83 47.3449 110.589 47.827C110.187 48.4697 109.785 49.1124 109.384 49.7551C108.982 50.3979 108.58 51.1209 108.098 51.7636C107.938 52.0046 107.857 52.2457 107.697 52.4063C107.536 52.6474 107.456 52.808 107.295 52.9687C106.733 53.7721 106.251 54.5755 105.769 55.2986C105.286 56.102 104.724 56.7447 104.001 57.4678C103.921 57.5481 103.84 57.7088 103.599 57.8694C103.198 58.1908 102.876 58.4318 102.635 58.8335C102.394 59.1549 102.234 59.5566 102.073 60.0386C101.912 60.6813 101.752 61.4044 101.752 62.0471C101.752 62.6898 101.671 63.4129 101.591 64.0556C101.591 64.377 101.591 64.618 101.51 64.859C101.51 65.1 101.51 65.3411 101.591 65.6624C101.912 67.5102 102.555 69.1974 103.519 70.5631C103.76 71.0452 104.242 71.3665 104.885 71.5272H105.206C105.769 71.7682 106.17 71.8486 106.572 71.6879C106.974 71.6076 107.375 71.3665 107.777 71.1255C108.259 70.9648 108.741 70.7238 109.303 70.3221C109.866 69.8401 110.428 69.358 110.991 68.7957C111.553 68.3136 111.955 67.7512 112.356 67.1889C112.758 66.6265 113.16 66.0641 113.642 65.5017C113.963 65.1 114.285 64.6983 114.526 64.2163C114.767 63.7343 115.088 63.3326 115.329 62.8505C115.49 62.6095 115.57 62.4488 115.731 62.2078C115.891 62.0471 116.052 61.8864 116.213 61.7258C116.614 61.2437 116.936 60.6813 117.096 60.1993C117.257 59.7976 117.498 59.3959 117.659 59.0745C117.819 58.6728 118.141 58.3515 118.462 58.1105L118.623 57.7891C118.864 57.3071 119.185 56.9054 119.587 56.5037C119.989 56.102 120.31 55.7003 120.631 55.2182C121.515 54.3345 122.399 53.6114 123.363 53.0491C123.765 52.7277 124.006 52.6474 124.166 52.808C124.327 52.8884 124.327 53.2097 124.327 53.7721C124.166 54.2542 123.925 54.6559 123.684 54.9772C123.443 55.3789 123.202 55.7806 122.961 56.1823C122.56 56.9857 122.158 57.7891 121.676 58.5122C121.194 59.3156 120.792 60.0386 120.471 60.842C120.23 61.4847 119.908 62.1275 119.667 62.7702C119.426 63.3326 119.105 63.9753 118.703 64.618V64.6983C118.543 65.3411 118.302 65.9034 117.98 66.4658C117.659 67.0282 117.257 67.5102 116.855 68.0726C116.614 68.394 116.373 68.635 116.132 68.9563C115.891 69.2777 115.65 69.5991 115.409 69.8401C115.249 70.0008 115.168 70.1614 115.008 70.2418C114.847 70.3221 114.767 70.4828 114.606 70.5631C114.365 71.1255 114.044 71.6076 113.642 72.0093C113.24 72.411 112.758 72.8127 112.276 73.2144C111.874 73.5357 111.473 73.7767 111.151 74.0178C110.75 74.2588 110.348 74.5801 109.866 74.8212C108.661 75.4639 107.375 75.7852 106.09 75.8656C105.527 75.9459 105.045 76.0262 104.483 75.9459C103.599 75.9459 102.957 75.8656 102.394 75.7852ZM117.418 24.2071C116.695 25.1712 115.972 26.1352 115.409 27.019C114.767 27.983 114.124 28.8668 113.561 29.8309C113.16 30.4736 112.758 31.1163 112.437 31.759C112.035 32.4017 111.633 33.0445 111.071 33.6068C110.107 34.6512 109.464 35.776 109.062 37.0614C108.902 37.6238 108.741 38.1862 108.58 38.6682C108.42 39.1503 108.098 39.7127 107.697 40.1947C107.375 40.5161 107.134 40.7571 107.134 40.9981C106.974 41.3998 106.733 41.8015 106.572 42.1229C106.411 42.4442 106.331 42.8459 106.331 43.3279C106.17 43.8903 106.09 44.3724 105.929 44.8544C105.769 45.1758 105.688 45.4971 105.527 45.8988C105.367 46.2202 105.286 46.5415 105.126 46.9432C105.126 47.0236 105.126 47.1843 105.045 47.2646C104.965 47.3449 105.045 47.5056 105.126 47.586C105.447 47.4253 105.688 47.1039 105.929 46.5415C106.01 46.4612 106.01 46.3809 106.01 46.3005C106.01 46.2202 106.01 46.2202 106.09 46.1398C106.331 45.9792 106.572 45.7381 106.652 45.5775C106.733 45.3364 106.893 45.0954 106.974 44.7741C106.974 44.533 107.134 44.292 107.375 43.8903C108.018 43.0869 108.58 42.2032 108.982 41.0784L109.303 40.5964C110.027 39.552 110.669 38.4272 111.312 37.2221C111.874 36.0974 112.517 34.8923 113.24 33.6872C113.561 33.1248 113.883 32.5624 114.124 32C114.365 31.4377 114.686 30.8753 115.008 30.2326C115.168 30.0719 115.249 29.9112 115.329 29.8309C115.409 29.7505 115.49 29.5898 115.49 29.5095C115.65 29.3488 115.731 29.1881 115.811 29.0275C115.891 28.8668 115.972 28.6258 116.052 28.4651C116.132 28.1437 116.213 27.9027 116.373 27.6617C116.534 27.4207 116.614 27.1796 116.775 26.9386C116.936 26.4566 117.177 25.9746 117.418 25.4925C117.659 25.0105 117.819 24.5284 117.98 24.0464C117.819 23.9661 117.659 24.0464 117.418 24.2071Z" fill="#008425"/>
<path d="M127.864 76.8275C127.222 76.4258 127.864 76.0241 125.936 75.7831C125.776 75.7831 125.695 75.6224 125.776 75.3814C126.017 74.7387 124.972 75.06 123.446 74.0959V74.0156C123.365 73.9353 123.285 73.9353 123.285 73.9353C123.285 73.8549 123.205 73.7746 123.124 73.6942C122.883 73.3729 122.642 73.1319 122.562 73.0515V72.9712C122.401 72.5695 122.241 72.1678 122.241 71.6858V70.6413C122.241 70.32 122.241 69.9986 122.16 69.5969C122 68.9542 122 68.3918 122.16 67.7491C122.321 67.1867 122.401 66.544 122.482 65.9013C122.562 65.0175 123.124 64.6158 124.169 64.5355C124.329 64.5355 124.329 64.5355 124.329 64.4552C124.329 64.4552 124.41 64.3748 124.49 64.2945C125.052 63.8928 125.535 63.4911 126.097 63.1697C126.659 62.768 127.222 62.4467 127.784 62.2057C128.186 61.9646 128.587 61.804 128.989 61.5629C129.391 61.4023 129.793 61.1612 130.114 60.8399C130.837 60.2775 131.48 59.7151 132.122 59.0724C132.685 58.51 133.327 57.8673 134.051 57.2246C134.613 56.6622 135.095 56.0998 135.577 55.5375C136.059 54.9751 136.621 54.4127 137.103 53.8503C137.264 53.6896 137.425 53.529 137.586 53.3683C137.746 53.2076 137.907 52.9666 137.987 52.8059C138.148 52.4042 138.309 52.0828 138.55 51.7615C138.791 51.4401 139.112 51.1991 139.353 50.8777L139.514 50.5564C139.996 49.8333 140.397 49.1103 140.799 48.4675C141.201 47.8248 141.683 47.1018 142.165 46.4591C142.326 46.3787 142.326 46.218 142.326 46.1377C142.486 45.8163 142.567 45.5753 142.567 45.3343C142.567 45.0933 142.647 44.8523 142.808 44.5309C142.968 44.1292 143.049 43.8078 142.968 43.4865C142.808 43.1651 142.808 42.8438 142.808 42.4421C142.808 42.1207 142.808 41.7993 142.727 41.3976C142.647 41.0763 142.567 40.8353 142.567 40.5139C142.486 40.1926 142.406 39.9515 142.165 39.6302C142.004 39.3088 141.763 39.0678 141.522 38.8268C141.281 38.5858 141.12 38.3447 140.96 38.0234C140.719 37.702 140.397 37.461 139.996 37.22C139.594 37.0593 139.273 36.8986 138.951 36.7379C138.389 36.4166 137.827 36.3362 137.184 36.3362C136.541 36.3362 135.898 36.3362 135.336 36.1756C135.095 36.0952 134.693 36.1756 134.211 36.3362C132.845 36.8183 131.64 37.5413 130.435 38.4251C130.194 38.5858 129.953 38.7464 129.712 38.9875C129.552 39.1481 129.31 39.3892 128.989 39.5498C127.302 40.6746 125.856 42.1207 124.49 43.8078C123.526 45.0933 122.562 46.3787 121.678 47.6642C120.794 48.9496 119.991 50.3154 119.268 51.6811C118.304 53.529 117.34 55.4571 116.536 57.3853C115.733 59.3134 115.01 61.3219 114.528 63.3304C114.207 64.5355 113.966 65.7406 113.966 66.8654C113.885 68.0705 113.966 69.2756 114.126 70.4807C114.287 71.3644 114.528 72.2481 114.849 73.0515C115.251 73.8549 115.813 74.578 116.617 75.2207C117.019 75.5421 117.501 75.8634 117.983 76.2651C118.465 76.6668 119.027 77.0685 119.589 77.4702C120.152 77.8719 120.794 78.1129 121.357 78.354C121.919 78.595 122.482 78.6753 123.044 78.595C123.365 78.5146 123.687 78.5146 123.928 78.595C124.169 78.6753 124.41 78.6753 124.651 78.7556C124.811 78.836 125.052 78.836 125.213 78.836C125.374 78.836 125.615 78.595 125.856 78.6753C126.338 78.6753 126.74 78.836 127.141 78.595C129.632 77.8719 128.668 77.2292 127.864 76.8275ZM127.061 53.9307C127.222 53.529 127.382 53.1273 127.543 52.7256C127.704 52.4042 127.864 52.1632 128.025 51.8418C128.186 51.5205 128.427 51.2794 128.507 50.9581C128.668 50.7171 128.748 50.5564 128.828 50.3154C128.909 50.1547 128.989 49.9137 128.989 49.5923C129.15 48.8692 129.552 48.2265 130.114 47.7445C130.516 47.2625 130.917 46.8608 131.239 46.4591C131.56 46.0574 131.881 45.6557 132.203 45.1736C132.524 44.7719 132.845 44.3702 133.167 43.9685C133.488 43.5668 133.81 43.1651 134.211 42.7634C134.452 42.4421 134.774 42.201 135.095 42.0404C135.416 41.8797 135.738 41.6387 136.059 41.3976H136.38C136.38 41.719 136.3 42.0404 136.22 42.4421C136.059 42.7634 135.979 43.0848 135.818 43.4865C135.657 43.9685 135.416 44.4506 135.095 44.9326C134.854 45.4146 134.533 45.8967 134.292 46.3787C133.729 47.5035 133.086 48.5479 132.203 49.5923C131.319 50.6367 130.435 51.6008 129.471 52.5649C128.989 53.0469 128.507 53.4486 128.025 53.8503C127.543 54.252 126.981 54.6537 126.499 55.1358C126.659 54.7341 126.9 54.3324 127.061 53.9307Z" fill="#008425"/>
<path d="M72.025 14.9688C71.9447 14.8885 71.9447 14.8885 72.025 14.9688C71.9447 14.9688 71.9447 14.9688 71.8643 14.8885C71.7037 14.6475 69.9362 15.6919 70.0969 15.6116C70.1772 15.5312 70.1772 15.4509 70.1772 15.3705C70.1772 15.2902 70.1772 15.1295 70.2575 15.0492C70.4182 14.8082 70.4986 14.6475 70.5789 14.3261C70.3379 14.4065 70.2575 14.2458 70.1772 14.0048C70.0969 13.6834 69.8558 13.6031 69.5345 13.6031C68.9721 13.5227 68.3294 13.5227 67.767 13.5227C67.6063 13.362 67.3653 13.2014 67.1243 13.2014C66.4816 13.121 65.8388 13.121 65.1158 13.2014C64.7944 13.2014 64.4731 13.2817 64.0714 13.4424C63.1073 13.9244 62.2236 14.5671 61.4202 15.2902C60.9381 15.6919 60.4561 16.0936 59.974 16.5756L58.6083 18.0218C58.1262 18.5841 57.6442 19.2269 57.1621 19.8696C56.6801 20.5123 56.2784 21.155 55.7964 21.8781C55.3947 22.5208 54.993 23.0832 54.5913 23.7259C54.1896 24.3686 53.0648 26.1361 53.0648 26.1361C53.1452 25.8951 49.0478 33.447 47.2804 37.705C45.0308 43.3288 43.2634 48.6312 42.942 49.5953C42.942 49.5953 40.9335 55.2191 40.7728 55.7815C40.5318 56.2635 40.2908 57.0669 40.1301 57.5489C40.0498 57.8703 39.9694 58.1113 39.8088 58.4327C39.7284 58.5934 39.7284 58.6737 39.6481 58.8344C39.3267 59.5574 38.925 60.3608 38.5233 61.0839C38.1216 61.8069 37.7199 62.53 37.3182 63.2531C36.9969 63.7351 36.7558 64.2171 36.3541 64.6992C36.0328 65.1812 35.7114 65.6633 35.3901 66.1453C35.0687 66.6273 34.8277 67.1094 34.5063 67.5111C34.185 67.9128 33.8636 68.3145 33.6226 68.7162C33.0602 69.4392 32.5782 70.0819 32.0158 70.7247C31.4534 71.3674 30.891 71.9298 30.3287 72.4921C30.0876 72.6528 29.927 72.8135 29.7663 72.9742C29.6056 73.1349 29.3646 73.2955 29.1236 73.3759C28.8825 73.5366 28.7219 73.6169 28.5612 73.7776C28.4005 73.9383 28.2398 74.0989 27.9988 74.1793C27.8381 74.34 27.5971 74.4203 27.5168 74.4203C27.3561 74.581 27.1151 74.6613 26.9544 74.6613C26.7937 74.7417 26.5527 74.822 26.392 74.9023C26.2313 74.9827 26.151 75.063 25.9903 75.063C25.9903 74.9827 25.91 74.9023 25.91 74.822C25.8296 74.581 25.8296 74.34 25.8296 74.0186C25.669 73.3759 25.669 72.7332 25.669 72.0101C25.669 71.287 25.669 70.564 25.7493 69.9213C25.8296 69.1982 25.91 68.4751 25.91 67.8324C25.9903 67.2701 26.0707 66.7077 26.151 66.1453C26.2313 65.5829 26.3117 65.1009 26.4724 64.5385C26.633 64.0565 26.7134 63.4941 26.7937 63.012C26.8741 62.53 26.9544 61.9676 27.1151 61.4856C27.2758 60.3608 27.5168 59.4771 27.7578 58.6737C27.9988 57.9506 28.1595 57.3079 28.3202 56.6652C28.4808 56.0225 28.6415 55.3798 28.8022 54.6567C29.0432 53.8533 29.3646 52.8892 29.7663 51.9252C30.168 51.1218 30.4893 50.238 30.8107 49.4346C30.9714 49.0329 31.1321 48.5509 31.3731 47.9885C31.6944 47.3458 32.0158 46.6227 32.2568 46.0603C32.6585 45.1766 36.2738 35.7769 36.9969 31.8402C38.0413 27.1002 37.9609 22.7618 35.0687 21.396C34.9884 21.396 34.9884 21.396 34.908 21.396C34.667 21.3157 34.426 21.2353 34.185 21.155H34.1046C33.7029 20.9943 33.3012 20.9943 32.8995 20.9943C32.6585 20.9943 32.4175 21.0747 32.0961 21.0747C31.5338 21.155 30.891 21.2353 30.168 21.396C29.7663 21.4764 29.3646 21.637 28.9629 21.7174C28.7219 21.7174 28.4808 21.7977 28.3202 21.8781C28.0791 22.0387 27.7578 22.1191 27.5168 22.1994C27.4364 22.2798 27.3561 22.2798 27.3561 22.3601C27.2758 22.4404 27.1151 22.4404 27.0347 22.5208C27.0347 22.5208 27.0347 22.4404 27.0347 22.3601C27.2758 22.1994 27.5168 22.1191 27.7578 22.0387C27.8381 21.9584 27.9185 21.9584 27.9185 21.9584C27.9988 21.9584 27.9988 21.8781 27.9988 21.7174C27.7578 21.7174 27.5168 21.7977 27.2758 21.7977C27.0347 21.7977 26.8741 21.8781 26.633 21.9584C26.4724 22.1191 26.392 22.1994 26.392 22.3601C26.392 22.4404 26.3117 22.4404 26.3117 22.4404C26.151 22.4404 25.9903 22.5208 25.7493 22.6011C25.669 22.6815 25.5886 22.7618 25.5083 22.8421C25.3476 22.8421 25.2673 22.9225 25.1066 22.9225C24.8656 23.0028 24.7049 23.0832 24.4639 23.1635C24.2228 23.2438 24.0622 23.4045 23.9015 23.5652C23.8211 23.6455 23.7408 23.6455 23.6605 23.6455C23.5801 23.6455 23.4998 23.7259 23.4998 23.8866C23.4194 23.9669 23.3391 24.1276 23.0981 24.2079C23.0177 24.2883 23.0177 24.2883 22.9374 24.2883C22.9374 24.2883 22.8571 24.2883 22.8571 24.3686C22.7767 24.3686 22.7767 24.4489 22.6964 24.4489L22.7767 24.2883L22.616 24.2079C22.375 24.2883 22.2143 24.3686 22.134 24.4489C21.9733 24.69 21.8126 24.931 21.5716 25.0113C21.3306 25.172 21.0896 25.3327 20.9289 25.5737C20.6879 25.7344 20.5272 25.9754 20.3665 26.1361C20.1255 26.2968 19.9648 26.4574 19.8042 26.6181C19.6435 26.7788 19.4025 27.0198 19.2418 27.2608L19.0811 27.4215C18.9204 27.5822 18.7597 27.6625 18.5991 27.8232C18.4384 27.9036 18.2777 28.0642 18.1974 28.2249C18.1974 28.2249 18.1974 28.2249 18.1974 28.3053C18.2777 28.4659 18.2777 28.4659 18.1974 28.5463C18.117 28.5463 18.117 28.5463 18.0367 28.5463L17.876 28.707C17.876 28.8676 17.876 28.948 17.7957 28.948C17.7153 28.948 17.635 29.0283 17.4743 29.1086C17.4743 29.189 17.4743 29.189 17.4743 29.2693C16.1085 30.4744 14.8231 31.8402 13.6983 33.1256C13.6983 33.1256 12.8146 34.0897 12.4129 34.6521C11.9309 35.2948 11.3685 36.0179 10.8061 36.7409L9.1993 39.0708C8.87794 39.5528 8.55658 40.1152 8.23522 40.5972C7.91386 41.0793 7.67285 41.6417 7.43183 42.1237C7.35149 42.204 7.27115 42.2844 7.27115 42.4451C7.03013 42.9271 6.94979 43.2485 7.03013 43.4895C7.11047 43.6502 7.19081 43.8912 7.43183 44.0519C7.35149 44.2929 7.35149 44.4536 7.35149 44.6142C7.43183 44.8552 7.59251 45.0963 7.91387 45.3373C8.7976 46.0603 9.68134 46.462 10.7258 46.462C11.4488 46.5424 12.0112 46.3817 12.5736 45.8997C12.8146 45.6586 13.136 45.257 13.377 44.6946C13.618 44.2929 13.859 43.8912 14.0197 43.5698C14.2607 43.2485 14.4214 42.8468 14.6624 42.5254C15.9478 40.4366 17.9563 37.8657 17.9563 37.8657C22.375 33.0453 28.5612 27.8232 30.7304 28.5463C31.4534 28.7873 31.5338 29.8317 31.3731 31.4385C30.9714 33.688 29.1236 38.9904 27.3561 43.8912C25.4279 48.4705 23.7408 52.5679 23.4998 53.1302C23.4194 53.3713 23.3391 53.6123 23.3391 53.773C23.2588 53.9336 23.2588 54.1747 23.1784 54.4157C23.0177 54.8977 22.8571 55.3798 22.6964 55.7815C22.5357 56.1832 22.375 56.6652 22.2143 57.0669C21.7323 58.1917 21.4913 59.3164 21.3306 60.4412C21.1699 61.5659 20.9289 62.6103 20.5272 63.7351C20.4469 64.0565 20.3665 64.3778 20.2862 64.6992C20.2059 65.0205 20.1255 65.3419 20.0452 65.6633C19.9648 65.9846 19.8845 66.306 19.8845 66.7077C19.8845 67.029 19.8042 67.4307 19.8042 67.7521C19.8042 67.9128 19.8042 68.1538 19.8845 68.3145C19.8845 68.4751 19.9648 68.6358 20.0452 68.7162C20.2059 68.8768 20.2059 69.0375 20.2059 69.3589C20.1255 69.6802 20.1255 70.0016 20.1255 70.323C20.1255 70.6443 20.1255 70.9657 20.0452 71.287L19.9648 71.7691C19.9648 71.9298 19.9648 72.0101 19.9648 72.0904C20.0452 72.0904 20.1255 72.2511 20.0452 72.4921L19.9648 72.9742C20.0452 73.6972 20.1255 74.34 20.2059 74.9827C20.2862 75.6254 20.4469 76.2681 20.5272 76.9108C20.6879 77.3929 20.8486 77.7142 21.0092 77.8749L21.3306 78.4373C21.4109 78.6783 21.5716 78.9193 21.652 79.08C21.7323 79.2407 21.893 79.4817 21.9733 79.7227C22.134 80.0441 22.375 80.2851 22.616 80.4458C22.8571 80.6065 23.0981 80.8475 23.2588 81.1688H23.3391C23.4998 81.1688 23.6605 81.2492 23.8211 81.4099C23.9015 81.4902 23.9818 81.4902 24.0622 81.5705C24.1425 81.6509 24.2228 81.8116 24.3835 81.9722H24.6245C24.7049 81.9722 24.7852 81.9722 24.8656 82.0526C24.9459 82.1329 25.0262 82.2133 25.1066 82.2936C25.2673 82.4543 25.3476 82.615 25.5083 82.7756C25.7493 83.1773 25.9903 83.4987 26.3117 83.6594C26.4724 83.82 26.633 83.9004 26.7937 84.1414C26.8741 84.3021 27.0347 84.3021 27.2758 84.2217C27.3561 84.2217 27.3561 84.3021 27.4364 84.3021C27.5971 84.4628 27.7578 84.5431 27.9185 84.7038C28.0791 84.8645 28.2398 84.8645 28.4808 84.7841C28.4808 84.8645 28.4808 84.8645 28.5612 84.8645C28.6415 84.9448 28.8022 84.8645 29.0432 84.7841C29.8466 84.3824 30.5697 83.8201 31.4534 83.0167C32.2568 82.2936 33.0602 81.5705 33.7833 80.7671C34.5867 79.9637 35.3097 79.08 36.0328 78.1963C37.5592 76.1878 39.0054 74.0186 40.2908 71.7691C40.6925 71.046 41.0942 70.323 41.4959 69.5999C41.8976 68.8768 42.2993 68.0735 42.701 67.3504C43.3437 66.065 43.9864 64.7795 44.5488 63.4137C45.1915 62.1283 45.7539 60.7625 46.3163 59.3968C46.6376 58.4327 46.959 57.5489 47.2804 56.6652C47.441 56.3438 47.6017 55.8618 47.7624 55.3798C47.9231 54.8977 48.0838 54.4157 48.1641 54.014C48.3248 53.6123 48.4855 53.1302 48.6461 52.6482C48.8872 52.0055 49.1282 51.4431 49.3692 50.8004C49.6102 50.1577 49.8512 49.515 50.0922 48.9526C50.2529 48.5509 50.4136 48.1492 50.5743 47.8278C50.735 47.4261 50.8956 47.0244 51.1367 46.7031C51.2973 46.462 51.3777 46.221 51.458 45.98C51.5384 45.739 51.6187 45.498 51.7794 45.257C51.9401 45.0159 52.0204 44.6946 52.1007 44.4536C52.1811 44.2125 52.3418 43.9715 52.4221 43.6502C52.8238 42.9271 53.1452 42.204 53.5469 41.481C53.8682 40.7579 54.2699 40.0349 54.6716 39.3118C55.234 38.3477 55.716 37.3836 56.1981 36.4999C56.6801 35.5358 57.2425 34.6521 57.8049 33.7684C58.2066 33.1256 58.6083 32.4829 59.01 31.8402C59.4117 31.1975 59.8134 30.5548 60.2151 29.912C60.6168 29.2693 60.9381 28.6266 61.3398 28.0642C61.7415 27.5019 62.1432 26.9395 62.4646 26.4574C62.6253 26.1361 62.7859 25.8951 62.9466 25.654C63.1073 25.413 63.268 25.172 63.509 24.931C63.75 24.6096 64.0714 24.2883 64.3124 24.0472C64.5534 23.8062 64.7944 23.4849 65.1158 23.1635C65.2765 22.9225 65.4371 22.7618 65.6782 22.5208L66.2405 21.9584C66.4816 21.7174 66.7226 21.5567 66.8029 21.4764L68.4901 19.8696C70.7396 17.9414 71.8643 17.138 71.8643 17.138C72.025 17.0577 72.1857 16.897 72.1857 16.7363C72.266 16.5756 71.8643 16.3346 71.9447 16.0936C72.025 16.0133 72.1053 15.9329 72.1053 15.8526C72.1857 15.7722 72.266 15.6919 72.266 15.6116C72.266 15.1295 72.266 14.9688 72.025 14.9688ZM20.6075 75.1434C20.4469 74.7417 20.3665 74.34 20.3665 73.9383C20.4469 73.5366 20.4469 73.1349 20.4469 72.7332C20.5272 72.8938 20.6075 73.2152 20.6075 73.7776C20.6879 74.4203 20.6879 74.822 20.6075 75.1434Z" fill="#008425"/>
<path d="M164.26 40.447C164.848 40.335 165.492 40.251 166.192 40.195C166.906 40.125 167.613 40.09 168.313 40.09C169.041 40.09 169.769 40.153 170.497 40.279C171.239 40.391 171.904 40.629 172.492 40.993C173.08 41.343 173.556 41.84 173.92 42.484C174.298 43.114 174.487 43.94 174.487 44.962C174.487 45.886 174.326 46.67 174.004 47.314C173.682 47.944 173.255 48.462 172.723 48.868C172.191 49.274 171.582 49.568 170.896 49.75C170.224 49.932 169.524 50.023 168.796 50.023C168.726 50.023 168.614 50.023 168.46 50.023C168.306 50.023 168.145 50.023 167.977 50.023C167.809 50.009 167.641 49.995 167.473 49.981C167.319 49.967 167.207 49.953 167.137 49.939V55H164.26V40.447ZM168.544 42.568C168.264 42.568 167.998 42.582 167.746 42.61C167.494 42.624 167.291 42.645 167.137 42.673V47.44C167.193 47.454 167.277 47.468 167.389 47.482C167.501 47.496 167.62 47.51 167.746 47.524C167.872 47.524 167.991 47.524 168.103 47.524C168.229 47.524 168.32 47.524 168.376 47.524C168.754 47.524 169.125 47.489 169.489 47.419C169.867 47.349 170.203 47.223 170.497 47.041C170.791 46.845 171.022 46.579 171.19 46.243C171.372 45.907 171.463 45.466 171.463 44.92C171.463 44.458 171.379 44.08 171.211 43.786C171.043 43.478 170.819 43.233 170.539 43.051C170.273 42.869 169.965 42.743 169.615 42.673C169.265 42.603 168.908 42.568 168.544 42.568ZM175.659 45.109C176.219 44.857 176.884 44.661 177.654 44.521C178.424 44.367 179.229 44.29 180.069 44.29C180.797 44.29 181.406 44.381 181.896 44.563C182.386 44.731 182.771 44.976 183.051 45.298C183.345 45.62 183.548 46.005 183.66 46.453C183.786 46.901 183.849 47.405 183.849 47.965C183.849 48.581 183.828 49.204 183.786 49.834C183.744 50.45 183.716 51.059 183.702 51.661C183.702 52.263 183.723 52.851 183.765 53.425C183.807 53.985 183.912 54.517 184.08 55.021H181.854L181.413 53.572H181.308C181.028 54.006 180.636 54.384 180.132 54.706C179.642 55.014 179.005 55.168 178.221 55.168C177.731 55.168 177.29 55.098 176.898 54.958C176.506 54.804 176.17 54.594 175.89 54.328C175.61 54.048 175.393 53.726 175.239 53.362C175.085 52.984 175.008 52.564 175.008 52.102C175.008 51.458 175.148 50.919 175.428 50.485C175.722 50.037 176.135 49.68 176.667 49.414C177.213 49.134 177.857 48.945 178.599 48.847C179.355 48.735 180.195 48.7 181.119 48.742C181.217 47.958 181.161 47.398 180.951 47.062C180.741 46.712 180.272 46.537 179.544 46.537C178.998 46.537 178.417 46.593 177.801 46.705C177.199 46.817 176.702 46.964 176.31 47.146L175.659 45.109ZM179.124 52.921C179.67 52.921 180.104 52.802 180.426 52.564C180.748 52.312 180.986 52.046 181.14 51.766V50.401C180.706 50.359 180.286 50.352 179.88 50.38C179.488 50.408 179.138 50.471 178.83 50.569C178.522 50.667 178.277 50.807 178.095 50.989C177.913 51.171 177.822 51.402 177.822 51.682C177.822 52.074 177.934 52.382 178.158 52.606C178.396 52.816 178.718 52.921 179.124 52.921ZM193.574 54.349C193.154 54.657 192.643 54.888 192.041 55.042C191.453 55.21 190.844 55.294 190.214 55.294C189.374 55.294 188.66 55.161 188.072 54.895C187.498 54.629 187.029 54.258 186.665 53.782C186.301 53.292 186.035 52.704 185.867 52.018C185.713 51.332 185.636 50.576 185.636 49.75C185.636 47.972 186.035 46.607 186.833 45.655C187.631 44.689 188.793 44.206 190.319 44.206C191.089 44.206 191.705 44.269 192.167 44.395C192.643 44.521 193.07 44.682 193.448 44.878L192.797 47.104C192.475 46.95 192.153 46.831 191.831 46.747C191.523 46.663 191.166 46.621 190.76 46.621C190.004 46.621 189.43 46.873 189.038 47.377C188.646 47.867 188.45 48.658 188.45 49.75C188.45 50.198 188.499 50.611 188.597 50.989C188.695 51.367 188.842 51.696 189.038 51.976C189.234 52.256 189.486 52.48 189.794 52.648C190.116 52.802 190.487 52.879 190.907 52.879C191.369 52.879 191.761 52.823 192.083 52.711C192.405 52.585 192.692 52.438 192.944 52.27L193.574 54.349ZM202.683 46.915H199.764V55H196.95V46.915H193.947V44.5H202.683V46.915ZM210.221 50.212L210.326 48.721H210.263L209.36 50.254L205.622 55H203.9V44.5H206.63V49.498L206.504 50.926H206.588L207.449 49.435L211.229 44.5H212.951V55H210.221V50.212ZM222.903 46.915H219.984V55H217.17V46.915H214.167V44.5H222.903V46.915ZM232.357 54.097C231.937 54.433 231.363 54.72 230.635 54.958C229.921 55.182 229.158 55.294 228.346 55.294C226.652 55.294 225.413 54.804 224.629 53.824C223.845 52.83 223.453 51.472 223.453 49.75C223.453 47.902 223.894 46.516 224.776 45.592C225.658 44.668 226.897 44.206 228.493 44.206C229.025 44.206 229.543 44.276 230.047 44.416C230.551 44.556 230.999 44.787 231.391 45.109C231.783 45.431 232.098 45.865 232.336 46.411C232.574 46.957 232.693 47.636 232.693 48.448C232.693 48.742 232.672 49.057 232.63 49.393C232.602 49.729 232.553 50.079 232.483 50.443H226.183C226.225 51.325 226.449 51.99 226.855 52.438C227.275 52.886 227.947 53.11 228.871 53.11C229.445 53.11 229.956 53.026 230.404 52.858C230.866 52.676 231.216 52.494 231.454 52.312L232.357 54.097ZM228.451 46.39C227.737 46.39 227.205 46.607 226.855 47.041C226.519 47.461 226.316 48.028 226.246 48.742H230.152C230.208 47.986 230.089 47.405 229.795 46.999C229.515 46.593 229.067 46.39 228.451 46.39ZM240.107 46.915H238.028C237.944 47.909 237.846 48.896 237.734 49.876C237.622 50.856 237.44 51.738 237.188 52.522C236.95 53.292 236.621 53.922 236.201 54.412C235.781 54.888 235.235 55.126 234.563 55.126C233.751 55.126 233.177 55.021 232.841 54.811L233.177 52.543C233.401 52.627 233.611 52.669 233.807 52.669C234.087 52.669 234.332 52.55 234.542 52.312C234.752 52.074 234.927 51.647 235.067 51.031C235.221 50.415 235.34 49.582 235.424 48.532C235.522 47.468 235.592 46.124 235.634 44.5H242.837V55H240.107V46.915ZM247.933 52.711C248.353 52.795 248.752 52.837 249.13 52.837C249.802 52.837 250.285 52.725 250.579 52.501C250.887 52.263 251.041 51.899 251.041 51.409C251.041 50.499 250.425 50.044 249.193 50.044C248.731 50.044 248.311 50.093 247.933 50.191V52.711ZM247.933 48.238C248.269 48.182 248.605 48.147 248.941 48.133C249.291 48.105 249.606 48.091 249.886 48.091C250.614 48.091 251.23 48.175 251.734 48.343C252.238 48.497 252.644 48.721 252.952 49.015C253.274 49.309 253.505 49.659 253.645 50.065C253.785 50.457 253.855 50.884 253.855 51.346C253.855 52.62 253.477 53.572 252.721 54.202C251.965 54.832 250.684 55.147 248.878 55.147C248.08 55.147 247.387 55.133 246.799 55.105C246.225 55.077 245.693 55.042 245.203 55V44.5H247.933V48.238ZM261.651 50.884H258.228V55H255.498V44.5H258.228V48.448H261.651V44.5H264.381V55H261.651V50.884ZM266.714 45.109C267.274 44.857 267.939 44.661 268.709 44.521C269.479 44.367 270.284 44.29 271.124 44.29C271.852 44.29 272.461 44.381 272.951 44.563C273.441 44.731 273.826 44.976 274.106 45.298C274.4 45.62 274.603 46.005 274.715 46.453C274.841 46.901 274.904 47.405 274.904 47.965C274.904 48.581 274.883 49.204 274.841 49.834C274.799 50.45 274.771 51.059 274.757 51.661C274.757 52.263 274.778 52.851 274.82 53.425C274.862 53.985 274.967 54.517 275.135 55.021H272.909L272.468 53.572H272.363C272.083 54.006 271.691 54.384 271.187 54.706C270.697 55.014 270.06 55.168 269.276 55.168C268.786 55.168 268.345 55.098 267.953 54.958C267.561 54.804 267.225 54.594 266.945 54.328C266.665 54.048 266.448 53.726 266.294 53.362C266.14 52.984 266.063 52.564 266.063 52.102C266.063 51.458 266.203 50.919 266.483 50.485C266.777 50.037 267.19 49.68 267.722 49.414C268.268 49.134 268.912 48.945 269.654 48.847C270.41 48.735 271.25 48.7 272.174 48.742C272.272 47.958 272.216 47.398 272.006 47.062C271.796 46.712 271.327 46.537 270.599 46.537C270.053 46.537 269.472 46.593 268.856 46.705C268.254 46.817 267.757 46.964 267.365 47.146L266.714 45.109ZM270.179 52.921C270.725 52.921 271.159 52.802 271.481 52.564C271.803 52.312 272.041 52.046 272.195 51.766V50.401C271.761 50.359 271.341 50.352 270.935 50.38C270.543 50.408 270.193 50.471 269.885 50.569C269.577 50.667 269.332 50.807 269.15 50.989C268.968 51.171 268.877 51.402 268.877 51.682C268.877 52.074 268.989 52.382 269.213 52.606C269.451 52.816 269.773 52.921 270.179 52.921ZM282.739 51.031L281.479 51.283L279.463 55H276.208L278.245 51.703L279.274 50.926C278.588 50.814 278.021 50.492 277.573 49.96C277.125 49.414 276.901 48.735 276.901 47.923C276.901 46.649 277.321 45.711 278.161 45.109C279.015 44.507 280.317 44.206 282.067 44.206C282.739 44.206 283.362 44.241 283.936 44.311C284.524 44.381 285.035 44.458 285.469 44.542V55H282.739V51.031ZM282.739 49.603V46.705C282.585 46.635 282.417 46.586 282.235 46.558C282.053 46.53 281.878 46.516 281.71 46.516C281.08 46.516 280.59 46.649 280.24 46.915C279.89 47.181 279.715 47.58 279.715 48.112C279.715 48.644 279.904 49.036 280.282 49.288C280.674 49.54 281.241 49.659 281.983 49.645L282.739 49.603ZM164.134 66.109C164.694 65.857 165.359 65.661 166.129 65.521C166.899 65.367 167.704 65.29 168.544 65.29C169.272 65.29 169.881 65.381 170.371 65.563C170.861 65.731 171.246 65.976 171.526 66.298C171.82 66.62 172.023 67.005 172.135 67.453C172.261 67.901 172.324 68.405 172.324 68.965C172.324 69.581 172.303 70.204 172.261 70.834C172.219 71.45 172.191 72.059 172.177 72.661C172.177 73.263 172.198 73.851 172.24 74.425C172.282 74.985 172.387 75.517 172.555 76.021H170.329L169.888 74.572H169.783C169.503 75.006 169.111 75.384 168.607 75.706C168.117 76.014 167.48 76.168 166.696 76.168C166.206 76.168 165.765 76.098 165.373 75.958C164.981 75.804 164.645 75.594 164.365 75.328C164.085 75.048 163.868 74.726 163.714 74.362C163.56 73.984 163.483 73.564 163.483 73.102C163.483 72.458 163.623 71.919 163.903 71.485C164.197 71.037 164.61 70.68 165.142 70.414C165.688 70.134 166.332 69.945 167.074 69.847C167.83 69.735 168.67 69.7 169.594 69.742C169.692 68.958 169.636 68.398 169.426 68.062C169.216 67.712 168.747 67.537 168.019 67.537C167.473 67.537 166.892 67.593 166.276 67.705C165.674 67.817 165.177 67.964 164.785 68.146L164.134 66.109ZM167.599 73.921C168.145 73.921 168.579 73.802 168.901 73.564C169.223 73.312 169.461 73.046 169.615 72.766V71.401C169.181 71.359 168.761 71.352 168.355 71.38C167.963 71.408 167.613 71.471 167.305 71.569C166.997 71.667 166.752 71.807 166.57 71.989C166.388 72.171 166.297 72.402 166.297 72.682C166.297 73.074 166.409 73.382 166.633 73.606C166.871 73.816 167.193 73.921 167.599 73.921ZM180.327 67.915H178.248C178.164 68.909 178.066 69.896 177.954 70.876C177.842 71.856 177.66 72.738 177.408 73.522C177.17 74.292 176.841 74.922 176.421 75.412C176.001 75.888 175.455 76.126 174.783 76.126C173.971 76.126 173.397 76.021 173.061 75.811L173.397 73.543C173.621 73.627 173.831 73.669 174.027 73.669C174.307 73.669 174.552 73.55 174.762 73.312C174.972 73.074 175.147 72.647 175.287 72.031C175.441 71.415 175.56 70.582 175.644 69.532C175.742 68.468 175.812 67.124 175.854 65.5H183.057V76H180.327V67.915ZM188.153 73.711C188.573 73.795 188.972 73.837 189.35 73.837C190.022 73.837 190.505 73.725 190.799 73.501C191.107 73.263 191.261 72.899 191.261 72.409C191.261 71.499 190.645 71.044 189.413 71.044C188.951 71.044 188.531 71.093 188.153 71.191V73.711ZM188.153 69.238C188.489 69.182 188.825 69.147 189.161 69.133C189.511 69.105 189.826 69.091 190.106 69.091C190.834 69.091 191.45 69.175 191.954 69.343C192.458 69.497 192.864 69.721 193.172 70.015C193.494 70.309 193.725 70.659 193.865 71.065C194.005 71.457 194.075 71.884 194.075 72.346C194.075 73.62 193.697 74.572 192.941 75.202C192.185 75.832 190.904 76.147 189.098 76.147C188.3 76.147 187.607 76.133 187.019 76.105C186.445 76.077 185.913 76.042 185.423 76V65.5H188.153V69.238ZM202.519 67.915H199.6V76H196.786V67.915H193.783V65.5H202.519V67.915ZM211.972 75.097C211.552 75.433 210.978 75.72 210.25 75.958C209.536 76.182 208.773 76.294 207.961 76.294C206.267 76.294 205.028 75.804 204.244 74.824C203.46 73.83 203.068 72.472 203.068 70.75C203.068 68.902 203.509 67.516 204.391 66.592C205.273 65.668 206.512 65.206 208.108 65.206C208.64 65.206 209.158 65.276 209.662 65.416C210.166 65.556 210.614 65.787 211.006 66.109C211.398 66.431 211.713 66.865 211.951 67.411C212.189 67.957 212.308 68.636 212.308 69.448C212.308 69.742 212.287 70.057 212.245 70.393C212.217 70.729 212.168 71.079 212.098 71.443H205.798C205.84 72.325 206.064 72.99 206.47 73.438C206.89 73.886 207.562 74.11 208.486 74.11C209.06 74.11 209.571 74.026 210.019 73.858C210.481 73.676 210.831 73.494 211.069 73.312L211.972 75.097ZM208.066 67.39C207.352 67.39 206.82 67.607 206.47 68.041C206.134 68.461 205.931 69.028 205.861 69.742H209.767C209.823 68.986 209.704 68.405 209.41 67.999C209.13 67.593 208.682 67.39 208.066 67.39ZM214.236 65.5H216.231L216.546 66.76H216.63C216.994 66.228 217.421 65.836 217.911 65.584C218.415 65.332 219.024 65.206 219.738 65.206C221.054 65.206 222.041 65.626 222.699 66.466C223.357 67.292 223.686 68.629 223.686 70.477C223.686 71.373 223.581 72.185 223.371 72.913C223.161 73.627 222.846 74.236 222.426 74.74C222.02 75.244 221.516 75.629 220.914 75.895C220.326 76.161 219.647 76.294 218.877 76.294C218.443 76.294 218.086 76.259 217.806 76.189C217.526 76.133 217.246 76.035 216.966 75.895V80.2H214.236V65.5ZM218.919 67.516C218.387 67.516 217.967 67.649 217.659 67.915C217.365 68.181 217.134 68.58 216.966 69.112V73.48C217.162 73.634 217.372 73.76 217.596 73.858C217.834 73.942 218.142 73.984 218.52 73.984C219.304 73.984 219.892 73.711 220.284 73.165C220.676 72.605 220.872 71.688 220.872 70.414C220.872 69.49 220.718 68.776 220.41 68.272C220.102 67.768 219.605 67.516 218.919 67.516ZM231.73 71.884H228.307V76H225.577V65.5H228.307V69.448H231.73V65.5H234.46V76H231.73V71.884ZM236.793 66.109C237.353 65.857 238.018 65.661 238.788 65.521C239.558 65.367 240.363 65.29 241.203 65.29C241.931 65.29 242.54 65.381 243.03 65.563C243.52 65.731 243.905 65.976 244.185 66.298C244.479 66.62 244.682 67.005 244.794 67.453C244.92 67.901 244.983 68.405 244.983 68.965C244.983 69.581 244.962 70.204 244.92 70.834C244.878 71.45 244.85 72.059 244.836 72.661C244.836 73.263 244.857 73.851 244.899 74.425C244.941 74.985 245.046 75.517 245.214 76.021H242.988L242.547 74.572H242.442C242.162 75.006 241.77 75.384 241.266 75.706C240.776 76.014 240.139 76.168 239.355 76.168C238.865 76.168 238.424 76.098 238.032 75.958C237.64 75.804 237.304 75.594 237.024 75.328C236.744 75.048 236.527 74.726 236.373 74.362C236.219 73.984 236.142 73.564 236.142 73.102C236.142 72.458 236.282 71.919 236.562 71.485C236.856 71.037 237.269 70.68 237.801 70.414C238.347 70.134 238.991 69.945 239.733 69.847C240.489 69.735 241.329 69.7 242.253 69.742C242.351 68.958 242.295 68.398 242.085 68.062C241.875 67.712 241.406 67.537 240.678 67.537C240.132 67.537 239.551 67.593 238.935 67.705C238.333 67.817 237.836 67.964 237.444 68.146L236.793 66.109ZM240.258 73.921C240.804 73.921 241.238 73.802 241.56 73.564C241.882 73.312 242.12 73.046 242.274 72.766V71.401C241.84 71.359 241.42 71.352 241.014 71.38C240.622 71.408 240.272 71.471 239.964 71.569C239.656 71.667 239.411 71.807 239.229 71.989C239.047 72.171 238.956 72.402 238.956 72.682C238.956 73.074 239.068 73.382 239.292 73.606C239.53 73.816 239.852 73.921 240.258 73.921ZM254.834 67.915H251.915V76H249.101V67.915H246.098V65.5H254.834V67.915ZM262.372 71.212L262.477 69.721H262.414L261.511 71.254L257.773 76H256.051V65.5H258.781V70.498L258.655 71.926H258.739L259.6 70.435L263.38 65.5H265.102V76H262.372V71.212ZM267.495 65.521C267.985 65.479 268.573 65.437 269.259 65.395C269.959 65.353 270.708 65.332 271.506 65.332C273.046 65.332 274.138 65.556 274.782 66.004C275.44 66.438 275.769 67.096 275.769 67.978C275.769 68.468 275.629 68.944 275.349 69.406C275.069 69.868 274.628 70.204 274.026 70.414V70.498C274.782 70.666 275.328 70.967 275.664 71.401C276 71.821 276.168 72.367 276.168 73.039C276.168 74.089 275.762 74.873 274.95 75.391C274.152 75.909 272.864 76.168 271.086 76.168C270.498 76.168 269.875 76.147 269.217 76.105C268.559 76.077 267.985 76.035 267.495 75.979V65.521ZM270.162 73.9C270.358 73.928 270.54 73.949 270.708 73.963C270.876 73.977 271.086 73.984 271.338 73.984C272.094 73.984 272.633 73.879 272.955 73.669C273.277 73.459 273.438 73.137 273.438 72.703C273.438 72.339 273.298 72.045 273.018 71.821C272.752 71.583 272.269 71.464 271.569 71.464H270.162V73.9ZM271.611 69.784C272.059 69.784 272.423 69.679 272.703 69.469C272.997 69.245 273.144 68.965 273.144 68.629C273.144 68.265 273.018 67.992 272.766 67.81C272.528 67.614 272.087 67.516 271.443 67.516C271.121 67.516 270.862 67.523 270.666 67.537C270.484 67.551 270.316 67.565 270.162 67.579V69.784H271.611ZM278.034 66.109C278.594 65.857 279.259 65.661 280.029 65.521C280.799 65.367 281.604 65.29 282.444 65.29C283.172 65.29 283.781 65.381 284.271 65.563C284.761 65.731 285.146 65.976 285.426 66.298C285.72 66.62 285.923 67.005 286.035 67.453C286.161 67.901 286.224 68.405 286.224 68.965C286.224 69.581 286.203 70.204 286.161 70.834C286.119 71.45 286.091 72.059 286.077 72.661C286.077 73.263 286.098 73.851 286.14 74.425C286.182 74.985 286.287 75.517 286.455 76.021H284.229L283.788 74.572H283.683C283.403 75.006 283.011 75.384 282.507 75.706C282.017 76.014 281.38 76.168 280.596 76.168C280.106 76.168 279.665 76.098 279.273 75.958C278.881 75.804 278.545 75.594 278.265 75.328C277.985 75.048 277.768 74.726 277.614 74.362C277.46 73.984 277.383 73.564 277.383 73.102C277.383 72.458 277.523 71.919 277.803 71.485C278.097 71.037 278.51 70.68 279.042 70.414C279.588 70.134 280.232 69.945 280.974 69.847C281.73 69.735 282.57 69.7 283.494 69.742C283.592 68.958 283.536 68.398 283.326 68.062C283.116 67.712 282.647 67.537 281.919 67.537C281.373 67.537 280.792 67.593 280.176 67.705C279.574 67.817 279.077 67.964 278.685 68.146L278.034 66.109ZM281.499 73.921C282.045 73.921 282.479 73.802 282.801 73.564C283.123 73.312 283.361 73.046 283.515 72.766V71.401C283.081 71.359 282.661 71.352 282.255 71.38C281.863 71.408 281.513 71.471 281.205 71.569C280.897 71.667 280.652 71.807 280.47 71.989C280.288 72.171 280.197 72.402 280.197 72.682C280.197 73.074 280.309 73.382 280.533 73.606C280.771 73.816 281.093 73.921 281.499 73.921Z" fill="#008425"/>
</g>
<defs>
<clipPath id="clip0_69_527">
<rect width="303" height="99" fill="white"/>
</clipPath>
</defs>
</svg>
