<svg width="126" height="66" viewBox="0 0 126 66" fill="none" xmlns="http://www.w3.org/2000/svg">
<path d="M64.4648 40.7702C65.1299 40.7702 65.3516 41.0658 64.9821 41.7309C64.8343 42.0264 64.6865 42.2481 64.6126 42.5437C64.5387 42.8393 64.4648 43.061 64.317 43.3565C64.1692 43.6521 64.0953 43.8738 64.0215 44.0216C63.9476 44.1694 63.7998 44.3911 63.7259 44.6127C63.5781 44.8344 63.5042 44.9822 63.3564 45.13C63.2086 45.2778 63.1347 45.4256 62.9869 45.5734C62.8391 45.7951 62.7652 45.9428 62.6175 46.1645C62.4697 46.3123 62.3958 46.534 62.248 46.8296C62.1002 47.1252 61.8785 47.4207 61.7307 47.7163C61.5829 48.0858 61.3612 48.3814 61.2874 48.6031C61.2135 48.6769 61.1396 48.8247 61.1396 48.8986C61.0657 48.9725 60.9918 49.0464 60.9918 49.1942C60.4745 49.7854 60.0311 50.3026 59.5878 50.8938C59.1444 51.411 58.6272 52.0022 58.1838 52.5934C57.9621 52.8889 57.7404 53.1106 57.5926 53.4062C57.4448 53.7018 57.2232 53.9974 57.0015 54.2929C56.4842 55.0319 55.9669 55.6969 55.3758 56.2881C54.7846 56.8792 54.1935 57.5443 53.5284 58.2093C53.2328 58.5788 52.8634 58.8744 52.42 59.17C51.9766 59.4656 51.5333 59.6872 50.9421 59.7611C50.7204 59.835 50.4987 59.9089 50.351 60.0567C50.2032 60.2045 50.0554 60.2784 49.8337 60.4262C49.3164 60.7957 48.7253 60.9435 48.208 60.9435C48.0602 60.8696 47.8385 60.8696 47.6908 60.8696C47.543 60.8696 47.3213 60.8696 47.1735 60.7957C46.9518 60.7218 46.7301 60.7218 46.5084 60.6479C46.2868 60.574 46.0651 60.574 45.6956 60.6479C45.1783 60.7218 44.6611 60.6479 44.1438 60.4262C43.6266 60.2045 43.0354 59.9089 42.5181 59.6133C42.0009 59.2439 41.4836 58.8744 41.0402 58.5049C40.5969 58.1355 40.1535 57.766 39.784 57.5443C39.0451 56.9531 38.5278 56.2881 38.1584 55.5491C37.7889 54.8102 37.5672 53.9974 37.4933 53.1845C37.3455 52.0761 37.2716 50.8938 37.3455 49.8593C37.4194 48.7508 37.5672 47.6424 37.8628 46.6079C38.38 44.7605 38.9712 42.9132 39.7101 41.1397C40.4491 39.3662 41.3358 37.5928 42.2226 35.8932C42.8876 34.5631 43.6266 33.3808 44.4394 32.1985C45.2522 31.0161 46.139 29.8338 47.0257 28.6515C48.2819 27.0997 49.612 25.7696 51.1638 24.7351C51.3855 24.5873 51.6072 24.4395 51.8288 24.2178C51.9766 24.07 52.1983 23.8484 52.4939 23.7006C53.6023 22.8877 54.7846 22.2227 55.9669 21.7793C56.4103 21.6315 56.7059 21.5576 57.0015 21.6315C57.5187 21.7054 58.1099 21.7793 58.701 21.7793C59.2922 21.7793 59.8095 21.8532 60.3267 22.1488C60.6223 22.2966 60.9179 22.4444 61.2874 22.5922C61.6568 22.7399 61.8785 22.9616 62.1741 23.3311C62.3219 23.6267 62.4697 23.8484 62.6914 24.07C62.913 24.2917 63.1347 24.5134 63.2825 24.809C63.4303 25.1046 63.5781 25.3263 63.652 25.6218C63.7259 25.9174 63.7998 26.1391 63.7998 26.4347C63.8737 26.7303 63.8737 27.0258 63.8737 27.3953C63.8737 27.6909 63.8737 27.9865 64.0215 28.3559C64.0953 28.6515 64.0215 28.9471 63.8737 29.3166C63.7259 29.6121 63.652 29.8338 63.652 30.0555C63.652 30.2772 63.5781 30.4989 63.4303 30.7945C63.4303 30.8684 63.3564 31.0161 63.2825 31.09C62.7652 31.6812 62.3958 32.3462 62.0263 32.9374C61.6568 33.5286 61.2874 34.1936 60.844 34.8587L60.2528 34.7848C60.0311 35.0803 59.7356 35.302 59.5139 35.5976C59.2922 35.8932 59.0705 36.1888 58.9966 36.5582C58.9227 36.7799 58.8488 36.9277 58.6272 37.0755C58.4794 37.2233 58.2577 37.3711 58.1838 37.5189C57.6665 38.0361 57.2232 38.5534 56.7798 39.0707C56.3364 39.5879 55.8192 40.1052 55.3758 40.6224C54.7846 41.2136 54.1935 41.7309 53.6023 42.322C53.0851 42.8393 52.42 43.4304 51.755 43.9477C51.4594 44.2433 51.0899 44.465 50.7204 44.6127C50.351 44.7605 49.9815 44.9822 49.612 45.2039C49.0948 45.4995 48.5775 45.7951 48.0602 46.0906C47.543 46.4601 47.0996 46.7557 46.5823 47.1252C46.4345 47.1991 46.4346 47.1991 46.4346 47.273C46.4346 47.273 46.3607 47.3468 46.2868 47.3468C45.3261 47.4207 44.8089 47.7902 44.735 48.6031C44.6611 49.1942 44.5872 49.7115 44.4394 50.3026C44.2916 50.8199 44.2916 51.411 44.4394 52.0022C44.5133 52.2978 44.5133 52.5934 44.5133 52.9628C44.5133 53.2584 44.5133 53.554 44.5133 53.9235C44.5133 54.3668 44.5872 54.7363 44.8089 55.1058V55.1797C44.9567 55.2536 45.1044 55.4753 45.3261 55.7708C45.4739 55.8447 45.4739 55.9186 45.4739 55.9925C45.5478 55.9925 45.6217 55.9925 45.6217 56.0664V56.1403C46.0651 56.5098 46.5084 56.5098 47.0257 56.2142C47.9124 55.7708 48.8731 55.2536 49.7598 54.7363C50.6465 54.219 51.5333 53.6279 52.2722 52.8889C52.5678 52.5934 52.8634 52.3717 53.159 52.0761C53.4545 51.7805 53.7501 51.4849 54.0457 51.2633C54.4891 50.8199 54.8585 50.4504 55.3019 50.0809C55.6714 49.7115 56.1147 49.2681 56.5581 48.8986C57.0015 48.5292 57.3709 48.1597 57.8143 47.7902C58.1838 47.4207 58.6272 47.0513 58.9966 46.6079C59.5139 46.0167 60.105 45.4256 60.6223 44.8344C61.1396 44.2433 61.7307 43.6521 62.248 42.9871C62.4697 42.6915 62.6914 42.4698 62.913 42.1742C63.1347 41.8786 63.3564 41.5831 63.5042 41.3614C63.652 40.918 64.0215 40.7702 64.4648 40.7702ZM49.3903 36.4104C49.2425 36.7799 49.0948 37.1494 48.947 37.5189C48.7992 37.8883 48.5775 38.2578 48.3558 38.6273C48.8731 38.1839 49.3164 37.8144 49.7598 37.445C50.2032 37.0755 50.6465 36.706 51.0899 36.2627C51.9766 35.3759 52.7895 34.4892 53.6023 33.5286C54.4152 32.5679 55.0063 31.6073 55.5236 30.5728C55.7453 30.1294 56.0408 29.686 56.2625 29.2427C56.4842 28.7993 56.7059 28.3559 56.9276 27.9126C57.0754 27.617 57.1493 27.3214 57.297 26.9519C57.4448 26.6564 57.4448 26.3608 57.4448 25.9913H57.1493C56.8537 26.213 56.5581 26.3608 56.2625 26.5825C55.9669 26.7303 55.7453 26.9519 55.4497 27.2475C55.0802 27.617 54.7846 27.9865 54.4891 28.3559C54.1935 28.7254 53.8979 29.0949 53.6023 29.4644C53.3067 29.9077 53.0112 30.2772 52.7156 30.6467C52.42 31.0161 52.0505 31.3856 51.6811 31.829C51.1638 32.2723 50.8682 32.8635 50.6465 33.5286C50.5726 33.8241 50.4988 34.0458 50.4988 34.1936C50.4249 34.3414 50.351 34.5631 50.2032 34.7848C50.0554 35.0803 49.9076 35.302 49.7598 35.5976C49.6859 35.8932 49.5381 36.1149 49.3903 36.4104Z" fill="#F4F1EB"/>
<path d="M69.564 57.6188C69.2684 57.545 68.9728 57.4711 68.6773 57.3233C68.3817 57.1755 68.16 57.0277 67.8644 56.8799C67.495 56.5843 67.1994 56.4365 66.9777 56.4365C66.8299 56.3626 66.6082 56.2149 66.4604 56.141C66.3126 56.0671 66.1649 55.9193 66.0171 55.7715C65.7215 55.4759 65.4998 55.1803 65.352 55.0325C65.2042 54.8847 65.0564 54.6631 64.9086 54.4414C64.7609 54.2197 64.687 53.998 64.5392 53.7024C64.3914 53.4069 64.2436 53.0374 64.0958 52.5201C63.8002 51.7812 63.5046 51.0422 63.283 50.2294C63.0613 49.4165 62.9135 48.6037 62.9135 47.717C62.9874 47.1997 62.9874 46.6824 62.9874 46.1652C62.9874 45.6479 62.9135 45.1307 62.8396 44.6134C62.8396 44.0222 62.8396 43.505 62.9135 42.9138C62.9135 42.3227 62.9874 41.8054 63.0613 41.2142C63.2091 40.4014 63.283 39.5886 63.4308 38.7757C63.5785 37.9629 63.7263 37.15 63.8741 36.3372C64.0219 35.5244 64.2436 34.7854 64.3914 34.0465C64.5392 33.3075 64.7609 32.4947 65.0564 31.7557C65.2042 31.4602 65.2781 31.1646 65.4259 30.7951C65.5737 30.4995 65.6476 30.1301 65.7954 29.7606C65.9432 29.3172 66.091 28.9477 66.2387 28.5783C66.3865 28.2088 66.6082 27.8393 66.6821 27.396C67.3472 25.5486 68.0861 23.7751 68.899 22.0755C69.4162 21.1149 69.8596 20.0804 70.3768 19.1198C70.8941 18.1591 71.4853 17.1985 72.0764 16.2379C72.5937 15.425 73.1109 14.6861 73.6282 13.8733C74.1455 13.0604 74.7366 12.3215 75.4017 11.5825C76.2145 10.6219 76.9535 9.73515 77.6185 8.77452C77.9141 8.33116 78.2836 7.96168 78.653 7.66611C79.0225 7.29663 79.392 7.00105 79.6876 6.63158C79.9831 6.26211 80.2787 5.89264 80.6482 5.59706C81.0177 5.30148 81.3132 5.0059 81.6088 4.63643C81.9044 4.04527 82.3478 3.74969 82.7911 3.74969C82.9389 3.74969 83.0128 3.74969 83.0867 3.6758C83.1606 3.6019 83.2345 3.6019 83.3823 3.52801C84.1951 3.08464 85.008 2.78906 85.8947 2.78906C86.8553 2.78906 87.5943 3.08464 88.1115 3.6019C88.2593 3.74969 88.3332 3.89748 88.481 3.97138C88.6288 4.04527 88.7027 4.19306 88.8505 4.34085C89.22 4.93201 89.5155 5.52316 89.6633 6.11432C89.8111 6.70548 89.8111 7.37053 89.5894 8.10947C89.4416 8.70063 89.22 9.36568 89.0722 10.0307C88.9244 10.6958 88.7027 11.2869 88.481 11.8781C88.2593 12.4693 88.0376 12.9865 87.816 13.4299C87.5943 13.8733 87.3726 14.3905 87.1509 14.9078C87.0031 15.2034 86.9292 15.425 86.7814 15.6467C86.6336 15.8684 86.5598 16.164 86.412 16.3857C86.1903 16.9768 85.8947 17.6419 85.5252 18.1591C85.1558 18.7503 84.7863 19.3414 84.3429 19.8587C84.1951 20.0804 84.1212 20.2282 83.9734 20.4499C83.8257 20.5977 83.7518 20.8193 83.604 21.1149C83.4562 21.4105 83.3084 21.5583 83.0867 21.5583C82.865 21.5583 82.6433 21.7061 82.5695 22.0017C82.4956 22.445 82.3478 22.8145 82.1261 23.1101C81.9044 23.4795 81.6088 23.7751 81.3871 24.1446C80.8699 24.9574 80.5004 25.7703 80.1309 26.5831C79.9092 27.1004 79.6876 27.6176 79.4659 28.061C79.2442 28.5044 79.0225 28.9477 78.653 29.3911C78.3575 29.8345 78.0619 30.204 77.8402 30.6473C77.6185 31.0907 77.3229 31.4602 77.1013 31.9035C76.7318 32.4947 76.3623 33.0858 75.9928 33.677C75.6234 34.2682 75.2539 34.9332 74.8105 35.5244C74.6627 35.746 74.5888 35.9677 74.441 36.1155C74.2933 36.3372 74.2194 36.485 74.0716 36.6328C73.5543 37.3717 73.1109 38.1107 72.6676 38.7757C72.2242 39.4408 71.7069 40.1058 71.0419 40.7709C70.968 40.8448 70.8941 40.9926 70.6724 41.1404C70.3029 41.4359 70.0074 41.6576 69.7857 42.0271C69.564 42.3227 69.4162 42.6921 69.2684 43.1355C69.1206 43.7267 68.9729 44.3917 68.9729 44.9829C68.9729 45.574 68.899 46.2391 68.8251 46.8302C68.8251 47.1258 68.8251 47.3475 68.7512 47.5692C68.7512 47.7909 68.7512 48.0126 68.8251 48.3081C69.1206 50.0077 69.7118 51.5595 70.5985 52.8157C70.8202 53.2591 71.2636 53.5546 71.8547 53.7024H72.1503C72.6676 53.9241 73.0371 53.998 73.4065 53.8502C73.776 53.7763 74.1455 53.5546 74.5149 53.333C74.9583 53.1852 75.4017 52.9635 75.9189 52.594C76.4362 52.1506 76.9535 51.7073 77.4707 51.19C77.988 50.7466 78.3575 50.2294 78.7269 49.7121C79.0964 49.1949 79.4659 48.6776 79.9092 48.1603C80.2048 47.7909 80.5004 47.4214 80.7221 46.978C80.9438 46.5347 81.2393 46.1652 81.461 45.7218C81.6088 45.5001 81.6827 45.3523 81.8305 45.1307C81.9783 44.9829 82.1261 44.8351 82.2739 44.6873C82.6433 44.2439 82.9389 43.7267 83.0867 43.2833C83.2345 42.9138 83.4562 42.5443 83.604 42.2488C83.7518 41.8793 84.0473 41.5837 84.3429 41.362L84.4907 41.0665C84.7124 40.6231 85.008 40.2536 85.3774 39.8841C85.7469 39.5147 86.0425 39.1452 86.3381 38.7018C87.1509 37.889 87.9638 37.2239 88.8505 36.7067C89.22 36.4111 89.4416 36.3372 89.5894 36.485C89.7372 36.5589 89.7372 36.8545 89.7372 37.3717C89.5894 37.8151 89.3677 38.1846 89.1461 38.4801C88.9244 38.8496 88.7027 39.2191 88.481 39.5886C88.1115 40.3275 87.7421 41.0665 87.2987 41.7315C86.8553 42.4705 86.4859 43.1355 86.1903 43.8745C85.9686 44.4656 85.673 45.0568 85.4513 45.6479C85.2297 46.1652 84.9341 46.7563 84.5646 47.3475V47.4214C84.4168 48.0125 84.1951 48.5298 83.8995 49.0471C83.604 49.5643 83.2345 50.0077 82.865 50.525C82.6433 50.8205 82.4217 51.0422 82.2 51.3378C81.9783 51.6334 81.7566 51.929 81.5349 52.1506C81.3871 52.2984 81.3132 52.4462 81.1655 52.5201C81.0177 52.594 80.9438 52.7418 80.796 52.8157C80.5743 53.333 80.2787 53.7763 79.9092 54.1458C79.5398 54.5153 79.0964 54.8847 78.653 55.2542C78.2836 55.5498 77.9141 55.7715 77.6185 55.9932C77.249 56.2148 76.8796 56.5104 76.4362 56.7321C75.3278 57.3233 74.1455 57.6188 72.9632 57.6927C72.4459 57.7666 72.0025 57.8405 71.4853 57.7666C70.6724 57.7666 70.1552 57.6927 69.564 57.6188ZM83.4562 10.1785C82.7911 11.0653 82.1261 11.952 81.6088 12.7648C81.0177 13.6516 80.4265 14.4644 79.9092 15.3511C79.5398 15.9423 79.1703 16.5335 78.8747 17.1246C78.5052 17.7158 78.1358 18.3069 77.6185 18.8242C76.7318 19.7848 76.1406 20.8193 75.7711 22.0017C75.6234 22.5189 75.4756 23.0362 75.3278 23.4795C75.18 23.9229 74.8844 24.4402 74.5149 24.8835C74.2194 25.1791 73.9977 25.4008 73.9977 25.6225C73.8499 25.992 73.6282 26.3614 73.4804 26.657C73.3326 26.9526 73.2587 27.3221 73.2587 27.7654C73.1109 28.2827 73.037 28.7261 72.8893 29.1694C72.7415 29.465 72.6676 29.7606 72.5198 30.1301C72.372 30.4256 72.2981 30.7212 72.1503 31.0907C72.1503 31.1646 72.1503 31.3124 72.0764 31.3863C72.0025 31.4602 72.0764 31.6079 72.1503 31.6818C72.4459 31.5341 72.6676 31.2385 72.8893 30.7212C72.9632 30.6473 72.9632 30.5734 72.9632 30.4995C72.9632 30.4256 72.9632 30.4256 73.0371 30.3517C73.2587 30.204 73.4804 29.9823 73.5543 29.8345C73.6282 29.6128 73.776 29.3911 73.8499 29.0955C73.8499 28.8738 73.9977 28.6522 74.2194 28.2827C74.8105 27.5437 75.3278 26.7309 75.6973 25.6964L75.9928 25.253C76.6579 24.2924 77.249 23.2579 77.8402 22.1494C78.3575 21.1149 78.9486 20.0065 79.6137 18.8981C79.9092 18.3808 80.2048 17.8636 80.4265 17.3463C80.6482 16.829 80.9438 16.3118 81.2393 15.7206C81.3871 15.5728 81.461 15.425 81.5349 15.3511C81.6088 15.2772 81.6827 15.1295 81.6827 15.0556C81.8305 14.9078 81.9044 14.76 81.9783 14.6122C82.0522 14.4644 82.1261 14.2427 82.2 14.0949C82.2739 13.7994 82.3478 13.5777 82.4956 13.356C82.6433 13.1343 82.7172 12.9126 82.865 12.6909C83.0128 12.2476 83.2345 11.8042 83.4562 11.3608C83.6779 10.9175 83.8257 10.4741 83.9734 10.0307C83.7518 9.95684 83.604 10.0307 83.4562 10.1785Z" fill="#F4F1EB"/>
<path d="M87.7411 57.6188C87.4456 57.545 87.15 57.4711 86.8544 57.3233C86.5588 57.1755 86.3371 57.0277 86.0416 56.8799C85.6721 56.5843 85.3765 56.4365 85.1548 56.4365C85.007 56.3626 84.7853 56.2149 84.6376 56.141C84.4898 56.0671 84.342 55.9193 84.1942 55.7715C83.8986 55.4759 83.6769 55.1803 83.5291 55.0325C83.3814 54.8847 83.2336 54.6631 83.0858 54.4414C82.938 54.2197 82.8641 53.998 82.7163 53.7024C82.5685 53.4069 82.4207 53.0374 82.2729 52.5201C81.9774 51.7812 81.6818 51.0422 81.4601 50.2294C81.2384 49.4165 81.0906 48.6037 81.0906 47.717C81.1645 47.1997 81.1645 46.6824 81.1645 46.1652C81.1645 45.6479 81.0906 45.1307 81.0167 44.6134C81.0167 44.0222 81.0167 43.505 81.0906 42.9138C81.0906 42.3227 81.1645 41.8054 81.2384 41.2142C81.3862 40.4014 81.4601 39.5886 81.6079 38.7757C81.7557 37.9629 81.9035 37.15 82.0512 36.3372C82.199 35.5244 82.4207 34.7854 82.5685 34.0465C82.7163 33.3075 82.938 32.4947 83.2336 31.7557C83.3814 31.4602 83.4552 31.1646 83.603 30.7951C83.7508 30.4995 83.8247 30.1301 83.9725 29.7606C84.1203 29.3172 84.2681 28.9477 84.4159 28.5783C84.5637 28.2088 84.7854 27.8393 84.8592 27.396C85.5243 25.5486 86.2632 23.7751 87.0761 22.0755C87.5933 21.1149 88.0367 20.0804 88.554 19.1198C89.0712 18.1591 89.6624 17.1985 90.2535 16.2379C90.7708 15.425 91.2881 14.6861 91.8053 13.8733C92.3226 13.0604 92.9137 12.3215 93.5788 11.5825C94.3916 10.6219 95.1306 9.73515 95.7956 8.77452C96.0912 8.33116 96.4607 7.96168 96.8302 7.66611C97.1996 7.29663 97.5691 7.00105 97.8647 6.63158C98.1603 6.26211 98.4558 5.89264 98.8253 5.59706C99.1948 5.30148 99.4904 5.0059 99.786 4.63643C100.082 4.04527 100.525 3.74969 100.968 3.74969C101.116 3.74969 101.19 3.74969 101.264 3.6758C101.338 3.6019 101.412 3.6019 101.559 3.52801C102.372 3.08464 103.185 2.78906 104.072 2.78906C105.032 2.78906 105.771 3.08464 106.289 3.6019C106.436 3.74969 106.51 3.89748 106.658 3.97138C106.806 4.04527 106.88 4.19306 107.028 4.34085C107.397 4.93201 107.693 5.52316 107.84 6.11432C107.988 6.70548 107.988 7.37053 107.767 8.10947C107.619 8.70063 107.397 9.36568 107.249 10.0307C107.102 10.6958 106.88 11.2869 106.658 11.8781C106.436 12.4693 106.215 12.9865 105.993 13.4299C105.771 13.8733 105.55 14.3905 105.328 14.9078C105.18 15.2034 105.106 15.425 104.959 15.6467C104.811 15.8684 104.737 16.164 104.589 16.3857C104.367 16.9768 104.072 17.6419 103.702 18.1591C103.333 18.7503 102.963 19.3414 102.52 19.8587C102.372 20.0804 102.298 20.2282 102.151 20.4499C102.003 20.5977 101.929 20.8193 101.781 21.1149C101.633 21.4105 101.486 21.5583 101.264 21.5583C101.042 21.5583 100.82 21.7061 100.747 22.0017C100.673 22.445 100.525 22.8145 100.303 23.1101C100.082 23.4795 99.7859 23.7751 99.5643 24.1446C99.047 24.9574 98.6775 25.7703 98.3081 26.5831C98.0864 27.1004 97.8647 27.6176 97.643 28.061C97.4213 28.5044 97.1996 28.9477 96.8302 29.3911C96.5346 29.8345 96.239 30.204 96.0173 30.6473C95.7956 31.0907 95.5001 31.4602 95.2784 31.9035C94.9089 32.4947 94.5394 33.0858 94.17 33.677C93.8005 34.2682 93.431 34.9332 92.9876 35.5244C92.8399 35.746 92.766 35.9677 92.6182 36.1155C92.4704 36.3372 92.3965 36.485 92.2487 36.6328C91.7314 37.3717 91.2881 38.1107 90.8447 38.7757C90.4013 39.5147 89.8841 40.1058 89.219 40.7709C89.1451 40.8448 89.0712 40.9926 88.8496 41.1404C88.4801 41.4359 88.1845 41.6576 87.9628 42.0271C87.7411 42.3227 87.5933 42.6921 87.4456 43.1355C87.2978 43.7267 87.15 44.3917 87.15 44.9829C87.15 45.574 87.0761 46.2391 87.0022 46.8302C87.0022 47.1258 87.0022 47.3475 86.9283 47.5692C86.9283 47.7909 86.9283 48.0126 87.0022 48.3081C87.2978 50.0077 87.8889 51.5595 88.7757 52.8157C88.9973 53.2591 89.4407 53.5546 90.0319 53.7024H90.3274C90.8447 53.9241 91.2142 53.998 91.5836 53.8502C91.9531 53.7763 92.3226 53.5546 92.6921 53.333C93.1354 53.1852 93.5788 52.9635 94.0961 52.594C94.6133 52.1506 95.1306 51.7073 95.6479 51.19C96.1651 50.7466 96.5346 50.2294 96.9041 49.7121C97.2735 49.1949 97.643 48.6776 98.0864 48.1603C98.382 47.7909 98.6775 47.4214 98.8992 46.978C99.1209 46.5347 99.4165 46.1652 99.6382 45.7218C99.7859 45.5001 99.8598 45.3523 100.008 45.1307C100.155 44.9829 100.303 44.8351 100.451 44.6873C100.82 44.2439 101.116 43.7267 101.264 43.2833C101.412 42.9138 101.633 42.5443 101.781 42.2488C101.929 41.8793 102.224 41.5837 102.52 41.362L102.668 41.0665C102.89 40.6231 103.185 40.2536 103.555 39.8841C103.924 39.5147 104.22 39.1452 104.515 38.7018C105.328 37.889 106.141 37.2239 107.028 36.7067C107.397 36.4111 107.619 36.3372 107.767 36.485C107.914 36.5589 107.914 36.8545 107.914 37.3717C107.767 37.8151 107.545 38.1846 107.323 38.4801C107.102 38.8496 106.88 39.2191 106.658 39.5886C106.289 40.3275 105.919 41.0665 105.476 41.7315C105.032 42.4705 104.663 43.1355 104.367 43.8745C104.146 44.4656 103.85 45.0568 103.628 45.6479C103.407 46.1652 103.111 46.7563 102.742 47.3475V47.4214C102.594 48.0125 102.372 48.5298 102.077 49.0471C101.781 49.5643 101.412 50.0077 101.042 50.525C100.82 50.8205 100.599 51.0422 100.377 51.3378C100.155 51.6334 99.9337 51.929 99.7121 52.1506C99.5643 52.2984 99.4904 52.4462 99.3426 52.5201C99.1948 52.594 99.1209 52.7418 98.9731 52.8157C98.7514 53.333 98.4558 53.7763 98.0864 54.1458C97.7169 54.5153 97.2735 54.8847 96.8302 55.2542C96.4607 55.5498 96.0912 55.7715 95.7956 55.9932C95.4262 56.2148 95.0567 56.5104 94.6133 56.7321C93.5049 57.3233 92.3226 57.6188 91.1403 57.6927C90.623 57.7666 90.1797 57.8405 89.6624 57.7666C88.8496 57.7666 88.2584 57.6927 87.7411 57.6188ZM101.559 10.1785C100.894 11.0653 100.229 11.952 99.7121 12.7648C99.1209 13.6516 98.5297 14.4644 98.0125 15.3511C97.643 15.9423 97.2735 16.5335 96.978 17.1246C96.6085 17.7158 96.239 18.3069 95.7218 18.8242C94.835 19.7848 94.2439 20.8193 93.8744 22.0017C93.7266 22.5189 93.5788 23.0362 93.431 23.4795C93.2832 23.9229 92.9876 24.4402 92.6182 24.8835C92.3226 25.1791 92.1009 25.4008 92.1009 25.6225C91.9531 25.992 91.7314 26.3614 91.5836 26.657C91.4359 26.9526 91.362 27.3221 91.362 27.7654C91.2142 28.2827 91.1403 28.7261 90.9925 29.1694C90.8447 29.465 90.7708 29.7606 90.623 30.1301C90.4752 30.4256 90.4013 30.7212 90.2535 31.0907C90.2535 31.1646 90.2535 31.3124 90.1797 31.3863C90.1058 31.4602 90.1797 31.6079 90.2535 31.6818C90.5491 31.5341 90.7708 31.2385 90.9925 30.7212C91.0664 30.6473 91.0664 30.5734 91.0664 30.4995C91.0664 30.4256 91.0664 30.4256 91.1403 30.3517C91.362 30.204 91.5836 29.9823 91.6575 29.8345C91.7314 29.6128 91.8792 29.3911 91.9531 29.0955C91.9531 28.8738 92.1009 28.6522 92.3226 28.2827C92.9138 27.5437 93.431 26.7309 93.8005 25.6964L94.0961 25.253C94.7611 24.2924 95.3523 23.2579 95.9434 22.1494C96.4607 21.1149 97.0519 20.0065 97.7169 18.8981C98.0125 18.3808 98.3081 17.8636 98.5297 17.3463C98.7514 16.829 99.047 16.3118 99.3426 15.7206C99.4904 15.5728 99.5643 15.425 99.6382 15.3511C99.712 15.2772 99.786 15.1295 99.786 15.0556C99.9337 14.9078 100.008 14.76 100.082 14.6122C100.155 14.4644 100.229 14.2427 100.303 14.0949C100.377 13.7994 100.451 13.5777 100.599 13.356C100.747 13.1343 100.82 12.9126 100.968 12.6909C101.116 12.2476 101.338 11.8042 101.559 11.3608C101.781 10.9175 101.929 10.4741 102.077 10.0307C101.929 9.95684 101.781 10.0307 101.559 10.1785Z" fill="#F4F1EB"/>
<path d="M111.168 58.5776C110.577 58.2081 111.168 57.8387 109.394 57.617C109.246 57.617 109.173 57.4692 109.246 57.2475C109.468 56.6563 108.508 56.9519 107.104 56.0652V55.9913C107.03 55.9174 106.956 55.9174 106.956 55.9174C106.956 55.8435 106.882 55.7696 106.808 55.6957C106.586 55.4001 106.365 55.1785 106.291 55.1046V55.0307C106.143 54.6612 105.995 54.2917 105.995 53.8484V52.8877C105.995 52.5921 105.995 52.2966 105.921 51.9271C105.773 51.3359 105.773 50.8187 105.921 50.2275C106.069 49.7103 106.143 49.1191 106.217 48.5279C106.291 47.7151 106.808 47.3456 107.769 47.2717C107.916 47.2717 107.916 47.2717 107.916 47.1978C107.916 47.1978 107.99 47.1239 108.064 47.0501C108.581 46.6806 109.025 46.3111 109.542 46.0155C110.059 45.6461 110.577 45.3505 111.094 45.1288C111.463 44.9071 111.833 44.7593 112.202 44.5376C112.572 44.3898 112.941 44.1682 113.237 43.8726C113.902 43.3553 114.493 42.8381 115.084 42.2469C115.601 41.7296 116.193 41.1385 116.858 40.5473C117.375 40.0301 117.818 39.5128 118.262 38.9955C118.705 38.4783 119.222 37.961 119.666 37.4438C119.813 37.296 119.961 37.1482 120.109 37.0004C120.257 36.8526 120.405 36.6309 120.478 36.4831C120.626 36.1137 120.774 35.8181 120.996 35.5225C121.217 35.2269 121.513 35.0052 121.735 34.7097L121.882 34.4141C122.326 33.749 122.695 33.084 123.065 32.4928C123.434 31.9017 123.878 31.2366 124.321 30.6455C124.469 30.5716 124.469 30.4238 124.469 30.3499C124.617 30.0543 124.69 29.8326 124.69 29.6109C124.69 29.3892 124.764 29.1676 124.912 28.872C125.06 28.5025 125.134 28.2069 125.06 27.9114C124.912 27.6158 124.912 27.3202 124.912 26.9507C124.912 26.6551 124.912 26.3596 124.838 25.9901C124.764 25.6945 124.69 25.4728 124.69 25.1773C124.617 24.8817 124.543 24.66 124.321 24.3644C124.173 24.0688 123.951 23.8472 123.73 23.6255C123.508 23.4038 123.36 23.1821 123.213 22.8865C122.991 22.5909 122.695 22.3693 122.326 22.1476C121.956 21.9998 121.661 21.852 121.365 21.7042C120.848 21.4086 120.331 21.3347 119.74 21.3347C119.148 21.3347 118.557 21.3347 118.04 21.1869C117.818 21.1131 117.449 21.1869 117.005 21.3347C115.749 21.7781 114.641 22.4432 113.532 23.256C113.311 23.4038 113.089 23.5516 112.867 23.7733C112.72 23.921 112.498 24.1427 112.202 24.2905C110.65 25.325 109.32 26.6551 108.064 28.2069C107.177 29.3892 106.291 30.5716 105.478 31.7539C104.665 32.9362 103.926 34.1924 103.261 35.4486C102.374 37.1482 101.488 38.9216 100.749 40.6951C100.01 42.4686 99.3446 44.316 98.9012 46.1633C98.6057 47.2717 98.384 48.3802 98.384 49.4147C98.3101 50.5231 98.384 51.6315 98.5318 52.7399C98.6795 53.5528 98.9012 54.3656 99.1968 55.1046C99.5663 55.8435 100.084 56.5086 100.822 57.0997C101.192 57.3953 101.635 57.6909 102.079 58.0603C102.522 58.4298 103.039 58.7993 103.557 59.1688C104.074 59.5382 104.665 59.7599 105.182 59.9816C105.7 60.2033 106.217 60.2772 106.734 60.2033C107.03 60.1294 107.325 60.1294 107.547 60.2033C107.769 60.2772 107.99 60.2772 108.212 60.3511C108.36 60.425 108.581 60.425 108.729 60.425C108.877 60.425 109.099 60.2033 109.32 60.2772C109.764 60.2772 110.133 60.425 110.503 60.2033C112.793 59.5382 111.907 58.9471 111.168 58.5776ZM110.429 37.5177C110.577 37.1482 110.724 36.7787 110.872 36.4092C111.02 36.1137 111.168 35.892 111.316 35.5964C111.463 35.3008 111.685 35.0791 111.759 34.7836C111.907 34.5619 111.981 34.4141 112.054 34.1924C112.128 34.0446 112.202 33.8229 112.202 33.5273C112.35 32.8623 112.72 32.2711 113.237 31.8278C113.606 31.3844 113.976 31.0149 114.271 30.6455C114.567 30.276 114.862 29.9065 115.158 29.4631C115.454 29.0937 115.749 28.7242 116.045 28.3547C116.34 27.9852 116.636 27.6158 117.005 27.2463C117.227 26.9507 117.523 26.729 117.818 26.5813C118.114 26.4335 118.409 26.2118 118.705 25.9901H119.001C119.001 26.2857 118.927 26.5813 118.853 26.9507C118.705 27.2463 118.631 27.5419 118.483 27.9114C118.336 28.3547 118.114 28.7981 117.818 29.2415C117.597 29.6848 117.301 30.1282 117.079 30.5716C116.562 31.6061 115.971 32.5667 115.158 33.5273C114.345 34.488 113.532 35.3747 112.646 36.2614C112.202 36.7048 111.759 37.0743 111.316 37.4438C110.872 37.8132 110.355 38.1827 109.912 38.6261C110.059 38.2566 110.281 37.8871 110.429 37.5177Z" fill="#F4F1EB"/>
<path d="M59.8084 1.6811C59.7345 1.60721 59.7345 1.60721 59.8084 1.6811C59.7345 1.6811 59.7345 1.6811 59.6606 1.60721C59.5128 1.38552 57.8872 2.34615 58.035 2.27226C58.1088 2.19836 58.1088 2.12447 58.1088 2.05057C58.1088 1.97668 58.1088 1.82889 58.1827 1.755C58.3305 1.53331 58.4044 1.38552 58.4783 1.08995C58.2566 1.16384 58.1827 1.01605 58.1088 0.794367C58.0349 0.498788 57.8133 0.424894 57.5177 0.424894C57.0004 0.350999 56.4093 0.350999 55.892 0.350999C55.7442 0.20321 55.5225 0.0554209 55.3008 0.0554209C54.7097 -0.0184736 54.1185 -0.0184736 53.4535 0.0554209C53.1579 0.0554209 52.8623 0.129316 52.4929 0.277105C51.6061 0.720472 50.7933 1.31163 50.0543 1.97668C49.611 2.34615 49.1676 2.71563 48.7242 3.15899L47.468 4.4891C47.0247 5.00636 46.5813 5.59751 46.1379 6.18867C45.6946 6.77983 45.3251 7.37098 44.8817 8.03604C44.5122 8.62719 44.1428 9.14445 43.7733 9.73561C43.4038 10.3268 42.3693 11.9524 42.3693 11.9524C42.4432 11.7308 38.6746 18.6769 37.0489 22.5933C34.9798 27.7659 33.3542 32.6429 33.0586 33.5297C33.0586 33.5297 31.2112 38.7023 31.0634 39.2196C30.8417 39.6629 30.6201 40.4019 30.4723 40.8452C30.3984 41.1408 30.3245 41.3625 30.1767 41.6581C30.1028 41.8059 30.1028 41.8798 30.0289 42.0275C29.7333 42.6926 29.3639 43.4315 28.9944 44.0966C28.6249 44.7616 28.2554 45.4267 27.886 46.0917C27.5904 46.5351 27.3687 46.9785 26.9992 47.4218C26.7036 47.8652 26.4081 48.3086 26.1125 48.7519C25.8169 49.1953 25.5952 49.6387 25.2997 50.0082C25.0041 50.3776 24.7085 50.7471 24.4868 51.1166C23.9696 51.7816 23.5262 52.3728 23.0089 52.9639C22.4917 53.5551 21.9744 54.0724 21.4571 54.5896C21.2355 54.7374 21.0877 54.8852 20.9399 55.033C20.7921 55.1808 20.5704 55.3286 20.3487 55.4025C20.127 55.5503 19.9792 55.6241 19.8315 55.7719C19.6837 55.9197 19.5359 56.0675 19.3142 56.1414C19.1664 56.2892 18.9447 56.3631 18.8708 56.3631C18.723 56.5109 18.5014 56.5848 18.3536 56.5848C18.2058 56.6587 17.9841 56.7326 17.8363 56.8065C17.6885 56.8804 17.6146 56.9543 17.4668 56.9543C17.4668 56.8804 17.3929 56.8065 17.3929 56.7326C17.319 56.5109 17.319 56.2892 17.319 55.9936C17.1713 55.4025 17.1713 54.8113 17.1713 54.1463C17.1713 53.4812 17.1713 52.8162 17.2451 52.225C17.319 51.5599 17.3929 50.8949 17.3929 50.3037C17.4668 49.7865 17.5407 49.2692 17.6146 48.7519C17.6885 48.2347 17.7624 47.7913 17.9102 47.2741C18.058 46.8307 18.1319 46.3134 18.2058 45.8701C18.2797 45.4267 18.3536 44.9094 18.5014 44.4661C18.6491 43.4315 18.8708 42.6187 19.0925 41.8798C19.3142 41.2147 19.462 40.6235 19.6098 40.0324C19.7576 39.4412 19.9054 38.8501 20.0531 38.185C20.2748 37.4461 20.5704 36.5593 20.9399 35.6726C21.3093 34.9337 21.6049 34.1208 21.9005 33.3819C22.0483 33.0124 22.1961 32.569 22.4178 32.0518C22.7133 31.4606 23.0089 30.7956 23.2306 30.2783C23.6001 29.4655 26.9253 20.8198 27.5904 17.199C28.551 12.8392 28.4771 8.84888 25.8169 7.59267C25.743 7.59267 25.743 7.59267 25.6691 7.59267C25.4474 7.51877 25.2258 7.44488 25.0041 7.37098H24.9302C24.5607 7.2232 24.1912 7.2232 23.8218 7.2232C23.6001 7.2232 23.3784 7.29709 23.0828 7.29709C22.5656 7.37098 21.9744 7.44488 21.3093 7.59267C20.9399 7.66656 20.5704 7.81435 20.2009 7.88825C19.9792 7.88825 19.7576 7.96214 19.6098 8.03604C19.3881 8.18383 19.0925 8.25772 18.8708 8.33161C18.7969 8.40551 18.723 8.40551 18.723 8.4794C18.6491 8.5533 18.5014 8.5533 18.4275 8.62719C18.4275 8.62719 18.4275 8.5533 18.4275 8.4794C18.6491 8.33161 18.8708 8.25772 19.0925 8.18383C19.1664 8.10993 19.2403 8.10993 19.2403 8.10993C19.3142 8.10993 19.3142 8.03604 19.3142 7.88825C19.0925 7.88825 18.8708 7.96214 18.6491 7.96214C18.4275 7.96214 18.2797 8.03604 18.058 8.10993C17.9102 8.25772 17.8363 8.33161 17.8363 8.4794C17.8363 8.5533 17.7624 8.5533 17.7624 8.5533C17.6146 8.5533 17.4668 8.62719 17.2451 8.70109C17.1713 8.77498 17.0974 8.84888 17.0235 8.92277C16.8757 8.92277 16.8018 8.99667 16.654 8.99667C16.4323 9.07056 16.2845 9.14445 16.0628 9.21835C15.8411 9.29224 15.6934 9.44003 15.5456 9.58782C15.4717 9.66172 15.3978 9.66172 15.3239 9.66172C15.25 9.66172 15.1761 9.73561 15.1761 9.8834C15.1022 9.9573 15.0283 10.1051 14.8066 10.179C14.7327 10.2529 14.7327 10.2529 14.6588 10.2529C14.6588 10.2529 14.5849 10.2529 14.5849 10.3268C14.511 10.3268 14.511 10.4007 14.4372 10.4007L14.511 10.2529L14.3633 10.179C14.1416 10.2529 13.9938 10.3268 13.9199 10.4007C13.7721 10.6223 13.6243 10.844 13.4026 10.9179C13.1809 11.0657 12.9593 11.2135 12.8115 11.4352C12.5898 11.583 12.442 11.8047 12.2942 11.9524C12.0725 12.1002 11.9247 12.248 11.7769 12.3958C11.6292 12.5436 11.4075 12.7653 11.2597 12.987L11.1119 13.1348C10.9641 13.2826 10.8163 13.3564 10.6685 13.5042C10.5207 13.5781 10.373 13.7259 10.2991 13.8737C10.2991 13.8737 10.2991 13.8737 10.2991 13.9476C10.373 14.0954 10.373 14.0954 10.2991 14.1693C10.2252 14.1693 10.2252 14.1693 10.1513 14.1693L10.0035 14.3171C10.0035 14.4649 10.0035 14.5388 9.92958 14.5388C9.85569 14.5388 9.78179 14.6127 9.63401 14.6865C9.63401 14.7604 9.63401 14.7604 9.63401 14.8343C8.3778 15.9428 7.19548 17.199 6.16096 18.3813C6.16096 18.3813 5.34812 19.268 4.97865 19.7853C4.53528 20.3764 4.01802 21.0415 3.50076 21.7065L2.02286 23.8495C1.72729 24.2928 1.43171 24.8101 1.13613 25.2535C0.840551 25.6968 0.618867 26.2141 0.397183 26.6575C0.323289 26.7314 0.249394 26.8053 0.249394 26.9531C0.0277105 27.3964 -0.0461841 27.692 0.0277105 27.9137C0.101605 28.0615 0.1755 28.2832 0.397183 28.4309C0.323289 28.6526 0.323289 28.8004 0.323289 28.9482C0.397183 29.1699 0.544972 29.3916 0.840551 29.6133C1.65339 30.2783 2.46623 30.6478 3.42686 30.6478C4.09191 30.7217 4.60917 30.5739 5.12644 30.1305C5.34812 29.9088 5.6437 29.5394 5.86538 29.0221C6.08707 28.6526 6.30875 28.2832 6.45654 27.9876C6.67822 27.692 6.82601 27.3225 7.0477 27.0269C8.23001 25.1057 10.0774 22.7411 10.0774 22.7411C14.1416 18.3074 19.8315 13.5042 21.8266 14.1693C22.4917 14.391 22.5656 15.3516 22.4178 16.8295C22.0483 18.8985 20.3487 23.7756 18.723 28.2832C16.9496 32.4951 15.3978 36.2638 15.1761 36.781C15.1022 37.0027 15.0283 37.2244 15.0283 37.3722C14.9544 37.52 14.9544 37.7417 14.8805 37.9633C14.7327 38.4067 14.5849 38.8501 14.4372 39.2196C14.2894 39.589 14.1416 40.0324 13.9938 40.4019C13.5504 41.4364 13.3287 42.4709 13.1809 43.5054C13.0332 44.54 12.8115 45.5006 12.442 46.5351C12.3681 46.8307 12.2942 47.1263 12.2203 47.4218C12.1464 47.7174 12.0725 48.013 11.9986 48.3086C11.9247 48.6042 11.8508 48.8997 11.8508 49.2692C11.8508 49.5648 11.7769 49.9343 11.7769 50.2298C11.7769 50.3776 11.7769 50.5993 11.8508 50.7471C11.8508 50.8949 11.9247 51.0427 11.9986 51.1166C12.1464 51.2644 12.1464 51.4122 12.1464 51.7077C12.0725 52.0033 12.0725 52.2989 12.0725 52.5945C12.0725 52.89 12.0725 53.1856 11.9986 53.4812L11.9247 53.9246C11.9247 54.0724 11.9247 54.1463 11.9247 54.2201C11.9986 54.2201 12.0725 54.3679 11.9986 54.5896L11.9247 55.033C11.9986 55.698 12.0725 56.2892 12.1464 56.8804C12.2203 57.4715 12.3681 58.0627 12.442 58.6538C12.5898 59.0972 12.7376 59.3928 12.8854 59.5406L13.1809 60.0578C13.2548 60.2795 13.4026 60.5012 13.4765 60.649C13.5504 60.7968 13.6982 61.0185 13.7721 61.2401C13.9199 61.5357 14.1416 61.7574 14.3633 61.9052C14.5849 62.053 14.8066 62.2747 14.9544 62.5702H15.0283C15.1761 62.5702 15.3239 62.6441 15.4717 62.7919C15.5456 62.8658 15.6195 62.8658 15.6934 62.9397C15.7673 63.0136 15.8411 63.1614 15.9889 63.3092H16.2106C16.2845 63.3092 16.3584 63.3092 16.4323 63.3831C16.5062 63.457 16.5801 63.5309 16.654 63.6048C16.8018 63.7526 16.8757 63.9003 17.0235 64.0481C17.2451 64.4176 17.4668 64.7132 17.7624 64.861C17.9102 65.0088 18.058 65.0827 18.2058 65.3043C18.2797 65.4521 18.4275 65.4521 18.6491 65.3782C18.723 65.3782 18.723 65.4521 18.7969 65.4521C18.9447 65.5999 19.0925 65.6738 19.2403 65.8216C19.3881 65.9694 19.5359 65.9694 19.7576 65.8955C19.7576 65.9694 19.7576 65.9694 19.8315 65.9694C19.9053 66.0433 20.0531 65.9694 20.2748 65.8955C21.0138 65.526 21.6788 65.0088 22.4917 64.2698C23.2306 63.6048 23.9696 62.9397 24.6346 62.2008C25.3736 61.4618 26.0386 60.649 26.7037 59.8361C28.1076 57.9888 29.4377 55.9936 30.6201 53.9246C30.9895 53.2595 31.359 52.5945 31.7285 51.9294C32.098 51.2644 32.4674 50.5254 32.8369 49.8604C33.4281 48.6781 34.0192 47.4957 34.5365 46.2395C35.1276 45.0572 35.6449 43.801 36.1622 42.5448C36.4577 41.6581 36.7533 40.8452 37.0489 40.0324C37.1967 39.7368 37.3445 39.2934 37.4923 38.8501C37.64 38.4067 37.7878 37.9633 37.8617 37.5939C38.0095 37.2244 38.1573 36.781 38.3051 36.3377C38.5268 35.7465 38.7485 35.2292 38.9701 34.6381C39.1918 34.0469 39.4135 33.4558 39.6352 32.9385C39.783 32.569 39.9308 32.1996 40.0786 31.904C40.2264 31.5345 40.3741 31.165 40.5958 30.8695C40.7436 30.6478 40.8175 30.4261 40.8914 30.2044C40.9653 29.9827 41.0392 29.761 41.187 29.5394C41.3348 29.3177 41.4087 29.0221 41.4826 28.8004C41.5565 28.5787 41.7042 28.357 41.7781 28.0615C42.1476 27.3964 42.4432 26.7314 42.8127 26.0663C43.1082 25.4013 43.4777 24.7362 43.8472 24.0712C44.3645 23.1844 44.8078 22.2977 45.2512 21.4849C45.6946 20.5981 46.2118 19.7853 46.7291 18.9724C47.0986 18.3813 47.468 17.7901 47.8375 17.199C48.207 16.6078 48.5764 16.0167 48.9459 15.4255C49.3154 14.8343 49.611 14.2432 49.9804 13.7259C50.3499 13.2087 50.7194 12.6914 51.015 12.248C51.1628 11.9524 51.3105 11.7308 51.4583 11.5091C51.6061 11.2874 51.7539 11.0657 51.9756 10.844C52.1973 10.5485 52.4929 10.2529 52.7145 10.0312C52.9362 9.80951 53.1579 9.51393 53.4535 9.21835C53.6013 8.99667 53.7491 8.84888 53.9707 8.62719L54.488 8.10993C54.7097 7.88825 54.9314 7.74046 55.0053 7.66656L56.5571 6.18867C58.6261 4.4152 59.6606 3.67626 59.6606 3.67626C59.8084 3.60236 59.9562 3.45457 59.9562 3.30678C60.0301 3.15899 59.6606 2.93731 59.7345 2.71563C59.8084 2.64173 59.8823 2.56784 59.8823 2.49394C59.9562 2.42005 60.0301 2.34615 60.0301 2.27226C60.0301 1.82889 60.0301 1.6811 59.8084 1.6811ZM12.5159 57.0281C12.3681 56.6587 12.2942 56.2892 12.2942 55.9197C12.3681 55.5503 12.3681 55.1808 12.3681 54.8113C12.442 54.9591 12.5159 55.2547 12.5159 55.7719C12.5898 56.3631 12.5898 56.7326 12.5159 57.0281Z" fill="#F4F1EB"/>
</svg>
