<svg width="20" height="21" viewBox="0 0 20 21" fill="none" xmlns="http://www.w3.org/2000/svg">
<rect y="0.5" width="20" height="20" rx="5" fill="#F4F1EB"/>
<path d="M11.7958 8.02501H12.6358L12.0598 11.277C11.9958 11.653 11.9918 11.925 12.0478 12.093C12.1118 12.261 12.2478 12.345 12.4558 12.345C12.6638 12.345 12.8678 12.297 13.0678 12.201C13.2678 12.105 13.4478 11.957 13.6078 11.757C13.7678 11.557 13.8958 11.305 13.9918 11.001C14.0958 10.697 14.1478 10.337 14.1478 9.92101C14.1478 9.32101 14.0478 8.80901 13.8478 8.38501C13.6478 7.96101 13.3718 7.61301 13.0198 7.34101C12.6758 7.06101 12.2678 6.85701 11.7958 6.72901C11.3238 6.60101 10.8158 6.53701 10.2718 6.53701C9.64779 6.53701 9.06779 6.64901 8.53179 6.87301C7.99579 7.09701 7.52779 7.40501 7.12779 7.79701C6.73579 8.18901 6.42779 8.65701 6.20379 9.20101C5.97979 9.73701 5.86779 10.321 5.86779 10.953C5.86779 11.577 5.95979 12.137 6.14379 12.633C6.33579 13.129 6.61179 13.549 6.97179 13.893C7.33179 14.245 7.77579 14.513 8.30379 14.697C8.83979 14.889 9.45179 14.985 10.1398 14.985C10.3718 14.985 10.6358 14.957 10.9318 14.901C11.2278 14.845 11.4958 14.761 11.7358 14.649L12.1078 15.801C11.7798 15.961 11.4438 16.073 11.0998 16.137C10.7638 16.201 10.3758 16.233 9.93579 16.233C9.15979 16.233 8.43979 16.121 7.77579 15.897C7.11979 15.673 6.54779 15.341 6.05979 14.901C5.57979 14.461 5.20379 13.917 4.93179 13.269C4.65979 12.613 4.52379 11.857 4.52379 11.001C4.52379 10.129 4.67979 9.34101 4.99179 8.63701C5.30379 7.93301 5.72379 7.33301 6.25179 6.83701C6.77979 6.34101 7.39179 5.96101 8.08779 5.69701C8.78379 5.42501 9.51979 5.28901 10.2958 5.28901C11.0318 5.28901 11.7158 5.39701 12.3478 5.61301C12.9798 5.82101 13.5278 6.12501 13.9918 6.52501C14.4558 6.91701 14.8198 7.40101 15.0838 7.97701C15.3478 8.54501 15.4798 9.19301 15.4798 9.92101C15.4798 10.433 15.3878 10.913 15.2038 11.361C15.0278 11.809 14.7798 12.197 14.4598 12.525C14.1478 12.853 13.7798 13.113 13.3558 13.305C12.9398 13.497 12.4918 13.593 12.0118 13.593C11.8118 13.593 11.6238 13.573 11.4478 13.533C11.2798 13.485 11.1358 13.409 11.0158 13.305C10.9038 13.201 10.8198 13.065 10.7638 12.897C10.7078 12.729 10.6918 12.521 10.7158 12.273H10.6678C10.5478 12.441 10.4158 12.605 10.2718 12.765C10.1358 12.925 9.98379 13.069 9.81579 13.197C9.64779 13.317 9.46379 13.413 9.26379 13.485C9.06379 13.557 8.84379 13.593 8.60379 13.593C8.41179 13.593 8.22779 13.553 8.05179 13.473C7.87579 13.385 7.72379 13.265 7.59579 13.113C7.46779 12.961 7.36379 12.777 7.28379 12.561C7.21179 12.345 7.17579 12.105 7.17579 11.841C7.17579 11.345 7.25579 10.865 7.41579 10.401C7.57579 9.92901 7.79179 9.51301 8.06379 9.15301C8.34379 8.79301 8.66379 8.50501 9.02379 8.28901C9.39179 8.06501 9.77979 7.95301 10.1878 7.95301C10.4678 7.95301 10.7038 7.99701 10.8958 8.08501C11.0878 8.16501 11.2638 8.27301 11.4238 8.40901L11.7958 8.02501ZM11.0398 9.47701C10.9358 9.38901 10.8278 9.32101 10.7158 9.27301C10.6038 9.22501 10.4638 9.20101 10.2958 9.20101C10.0558 9.20101 9.83179 9.26901 9.62379 9.40501C9.42379 9.54101 9.24779 9.71701 9.09579 9.93301C8.95179 10.149 8.83979 10.393 8.75979 10.665C8.67979 10.929 8.63979 11.189 8.63979 11.445C8.63979 11.709 8.69179 11.925 8.79579 12.093C8.90779 12.261 9.09579 12.345 9.35979 12.345C9.47179 12.345 9.59179 12.313 9.71979 12.249C9.84779 12.177 9.97179 12.085 10.0918 11.973C10.2118 11.861 10.3278 11.733 10.4398 11.589C10.5518 11.445 10.6518 11.293 10.7398 11.133L11.0398 9.47701Z" fill="#004E16"/>
</svg>
