<svg width="78" height="79" viewBox="0 0 78 79" fill="none" xmlns="http://www.w3.org/2000/svg">
<rect y="0.357422" width="77.6936" height="77.6936" rx="20" fill="#008425"/>
<path d="M32.9321 29.9511C32.9929 30.8628 33.0537 31.7746 33.1144 32.6864C33.1144 33.0511 33.084 33.3854 33.084 33.7501C33.1144 35.3001 33.0537 36.8197 32.6283 38.3089C32.3853 39.1599 31.8688 39.3423 31.1093 38.856C30.3498 38.3697 29.9245 37.5795 29.3169 36.9413C28.8611 36.2726 28.4054 35.604 27.9497 34.9354C26.9776 33.2334 26.0358 31.5315 25.2459 29.7383C25.0028 29.1609 24.8509 28.4922 24.4256 27.9756C23.9395 27.1854 23.2407 26.8207 22.299 26.9118C19.99 26.7599 17.6811 26.7599 15.3418 26.8207C14.3089 26.8511 13.8228 27.5501 14.2177 28.5226C14.8557 30.103 15.5545 31.653 16.3747 33.1423C16.6482 33.9021 17.0127 34.6011 17.4381 35.2697C18.5318 37.5491 19.7774 39.7374 21.2053 41.804C21.5698 42.4423 21.9648 43.0501 22.4509 43.6276C23.8484 45.6942 25.337 47.6697 27.3421 49.2197C27.8586 49.706 28.4054 50.1315 29.0131 50.4962C31.4435 52.259 34.1777 53.2011 37.1854 53.3531C37.3069 53.4443 37.4588 53.4747 37.6107 53.3835C38.431 53.5354 39.2513 53.505 40.0716 53.4443C41.6514 53.4747 42.4716 52.9276 42.6235 51.7423C42.6843 51.3776 42.7147 51.0129 42.7451 50.6178C42.9273 49.7972 43.0489 48.9766 43.2919 48.1864C43.5957 47.0923 44.4767 46.7884 45.4489 47.4266C45.5704 47.5178 45.692 47.6089 45.8135 47.6697C46.9072 48.7942 47.9705 49.9492 49.0642 51.0433C49.6718 51.6511 50.1883 52.3501 50.9782 52.7148C51.7985 53.2619 52.7099 53.5354 53.682 53.4747C56.0214 53.5962 58.391 53.7482 60.7303 53.505C62.5228 53.3227 63.1912 51.955 62.2494 50.405C61.5506 49.2501 60.7911 48.1864 59.8189 47.2442C59.3632 46.6364 58.8164 46.0893 58.2391 45.6031C57.4189 44.7825 56.629 43.9619 55.8087 43.1413C54.5023 41.8344 54.4416 41.3785 55.3834 39.7981C55.5353 39.555 55.7175 39.2815 55.8998 39.0383C56.872 37.7011 57.8746 36.3638 58.8467 35.0266C58.9986 34.8138 59.1809 34.6619 59.1809 34.3579C60.7911 32.6256 62.0063 30.6805 62.6139 28.3707C62.6747 28.1275 62.7051 27.854 62.4924 27.6716C62.1886 26.9422 61.5202 26.9118 60.9126 26.9118C58.3303 26.8814 55.7479 26.8814 53.1656 26.8814C51.525 26.8814 51.2516 27.0638 50.644 28.6138C49.3073 32.0177 47.5452 35.1785 45.0844 37.9138C44.6286 38.4001 44.2641 39.1903 43.4742 39.0079C42.6539 38.7952 42.7147 37.9138 42.5628 37.2452C42.3501 35.7256 42.5931 34.206 42.5324 32.6864C42.5628 31.2579 42.6235 29.8295 42.5931 28.4011C42.5324 26.6079 41.6817 25.8785 39.8589 25.8785C38.9171 25.6962 37.9449 25.7569 36.9727 25.7569C35.4233 25.6961 33.8436 25.6658 32.2941 25.8785C31.5043 25.9697 30.8359 26.304 30.3498 26.9118C29.9245 27.4285 30.0156 27.854 30.6536 27.9452C31.9296 28.1579 32.598 28.8266 32.9321 29.9511Z" fill="#F4F1EB"/>
</svg>
