<svg width="20" height="20" viewBox="0 0 20 20" fill="none" xmlns="http://www.w3.org/2000/svg">
<path d="M18.1594 2.27454C18.5582 2.75178 18.9336 3.25249 19.2073 3.81579C19.4576 4.33215 19.5593 4.88763 19.6453 5.4431C19.8955 7.07041 20.0207 8.71337 19.9972 10.3563C19.9737 12.0071 19.8252 13.6579 19.5123 15.2774C19.3637 16.0754 18.9414 16.7639 18.4331 17.3898C17.698 18.2817 16.822 18.9936 15.7272 19.3926C15.2736 19.5569 14.7887 19.6038 14.3195 19.6743C12.7006 19.909 11.0739 20.0263 9.4394 19.995C7.93002 19.9637 6.42847 19.8151 4.94255 19.5569C4.00408 19.4004 3.22202 18.931 2.50253 18.3364C2.42432 18.2738 2.35393 18.2112 2.27573 18.1565C2.14278 18.0235 2.00983 17.8905 1.87688 17.7653C1.392 17.2098 0.969688 16.6152 0.680325 15.9346C0.469169 15.4104 0.406604 14.8549 0.320578 14.3073C0.0781391 12.6878 -0.0313493 11.0605 0.0077537 9.42532C0.0390361 7.84495 0.187628 6.27241 0.492631 4.71551C0.649043 3.90185 1.07918 3.20555 1.60316 2.57966C2.33047 1.70342 3.19074 1.00712 4.26998 0.615934C4.82524 0.41252 5.41179 0.365579 5.98269 0.279519C6.96027 0.138694 7.93784 0.0526343 8.91542 0.0213399C10.0963 -0.0256018 11.2694 0.00569266 12.4425 0.1074C13.3497 0.185636 14.2491 0.30299 15.1484 0.459462C15.9618 0.600287 16.65 0.999291 17.2991 1.5C17.4555 1.62518 17.6119 1.75818 17.7683 1.88336C17.9013 2.00854 18.0342 2.14154 18.1594 2.27454ZM8.47746 7.61807C8.49311 7.85278 8.50875 8.08748 8.52439 8.32219C8.52439 8.41608 8.51657 8.50214 8.51657 8.59602C8.52439 8.99502 8.50875 9.3862 8.39926 9.76956C8.33669 9.98862 8.20374 10.0356 8.00823 9.91039C7.81271 9.78521 7.70323 9.58179 7.54681 9.4175C7.4295 9.24538 7.3122 9.07326 7.19489 8.90114C6.94463 8.46302 6.70219 8.02489 6.49885 7.5633C6.43629 7.41465 6.39718 7.24253 6.2877 7.10953C6.16257 6.90612 5.98269 6.81223 5.74025 6.83571C5.14589 6.79659 4.55152 6.79659 3.94934 6.81223C3.68344 6.82006 3.55831 7 3.65997 7.25036C3.82421 7.65718 4.00408 8.05619 4.21524 8.43955C4.28562 8.63514 4.37947 8.81508 4.48896 8.9872C4.7705 9.57397 5.09114 10.1373 5.45871 10.6693C5.55256 10.8336 5.65423 10.99 5.77936 11.1387C6.13911 11.6707 6.52231 12.1792 7.03847 12.5782C7.17142 12.7034 7.3122 12.8129 7.46861 12.9068C8.09426 13.3606 8.79811 13.6031 9.57235 13.6422C9.60363 13.6657 9.64273 13.6735 9.68184 13.6501C9.89299 13.6892 10.1041 13.6814 10.3153 13.6657C10.722 13.6735 10.9331 13.5327 10.9722 13.2276C10.9879 13.1337 10.9957 13.0398 11.0035 12.9381C11.0504 12.7269 11.0817 12.5156 11.1443 12.3122C11.2225 12.0306 11.4493 11.9523 11.6996 12.1166C11.7308 12.1401 11.7621 12.1636 11.7934 12.1792C12.0749 12.4687 12.3487 12.766 12.6302 13.0477C12.7866 13.2041 12.9196 13.3841 13.1229 13.478C13.3341 13.6188 13.5687 13.6892 13.8189 13.6735C14.4211 13.7048 15.0311 13.744 15.6333 13.6814C16.0947 13.6344 16.2668 13.2824 16.0243 12.8834C15.8445 12.5861 15.649 12.3122 15.3987 12.0697C15.2814 11.9132 15.1406 11.7724 14.992 11.6472C14.7809 11.436 14.5775 11.2248 14.3664 11.0135C14.0301 10.6771 14.0145 10.5597 14.2569 10.1529C14.296 10.0903 14.3429 10.0199 14.3898 9.95733C14.6401 9.61309 14.8982 9.26885 15.1484 8.92461C15.1875 8.86984 15.2345 8.83073 15.2345 8.75249C15.649 8.30655 15.9618 7.80583 16.1182 7.21124C16.1338 7.14865 16.1417 7.07824 16.0869 7.0313C16.0087 6.84353 15.8366 6.83571 15.6802 6.83571C15.0155 6.82788 14.3507 6.82788 13.686 6.82788C13.2637 6.82788 13.1933 6.87482 13.0369 7.27383C12.6928 8.15007 12.2392 8.96373 11.6057 9.66785C11.4884 9.79303 11.3945 9.99644 11.1912 9.9495C10.9801 9.89474 10.9957 9.66785 10.9566 9.49573C10.9019 9.10455 10.9644 8.71337 10.9488 8.32219C10.9566 7.95448 10.9722 7.58677 10.9644 7.21906C10.9488 6.75747 10.7298 6.5697 10.2606 6.5697C10.0181 6.52276 9.76786 6.53841 9.5176 6.53841C9.11875 6.52276 8.71208 6.51494 8.31323 6.5697C8.1099 6.59317 7.93784 6.67923 7.81271 6.83571C7.70323 6.96871 7.72669 7.07824 7.89092 7.10171C8.21939 7.15647 8.39144 7.32859 8.47746 7.61807Z" fill="#F4F1EB"/>
</svg>
